<svg version="1.1" id="Layer_1" xmlns="http://www.w3.org/2000/svg" xmlns:xlink="http://www.w3.org/1999/xlink" x="0px" y="0px"
	 width="100%" viewBox="0 0 153 312" enable-background="new 0 0 153 312" xml:space="preserve">
<path fill="#FEFDFC" opacity="1.000000" stroke="none" 
	d="
M51.000000,0.999999 
	C85.316048,1.000000 119.632103,1.000000 153.974075,1.000000 
	C153.974075,104.930351 153.974075,208.860718 153.974075,312.895538 
	C103.095505,312.895538 52.190723,312.895538 1.000000,312.895538 
	C1.000000,212.645950 1.000000,112.291634 1.340925,11.566266 
	C4.480616,16.120720 7.279383,21.046225 10.061438,25.965223 
	C10.044725,25.958719 10.025375,25.929413 10.014522,26.210056 
	C10.334568,26.923882 10.665468,27.357059 11.006538,27.901363 
	C11.016709,28.012489 11.232775,28.068390 11.213842,28.333607 
	C11.420726,28.861385 11.646543,29.123947 11.901604,29.739756 
	C13.243421,33.671375 14.598196,37.234917 15.861606,40.830563 
	C23.161070,61.604752 30.438965,82.386520 37.644600,103.313927 
	C37.623749,103.707756 37.775909,103.860291 38.041069,104.300865 
	C40.157845,110.819496 42.255066,116.956993 44.329338,123.451096 
	C44.824131,125.466354 45.341862,127.125008 45.842972,128.928253 
	C45.826347,129.072845 46.103645,129.161423 46.110432,129.424408 
	C46.369072,129.920776 46.620926,130.154160 46.923431,130.757141 
	C47.617401,134.996338 48.260715,138.865967 48.567402,142.770920 
	C38.751141,143.869110 36.474697,146.441956 36.846210,156.009109 
	C37.039444,160.985291 37.468845,165.952332 37.463585,171.013000 
	C21.928619,179.832214 12.024117,192.762650 6.567878,209.598999 
	C6.292905,210.191513 6.246957,210.583511 6.069913,211.207672 
	C5.902600,211.788681 5.866382,212.137527 5.618846,212.675934 
	C5.377394,213.229279 5.347259,213.593048 5.188502,214.245972 
	C4.985314,215.156891 4.910749,215.778671 4.608812,216.663574 
	C4.321733,217.607513 4.262024,218.288361 4.063295,219.281525 
	C3.869671,220.495438 3.815066,221.397034 3.532406,222.574615 
	C3.287496,223.554291 3.270642,224.258011 3.146743,225.334641 
	C3.026647,226.477905 3.013596,227.248260 2.858820,228.263367 
	C2.755627,229.233627 2.794159,229.959122 2.649032,231.137131 
	C2.586471,234.488632 2.707568,237.387619 2.705527,240.518494 
	C2.691019,241.248062 2.799650,241.745773 2.843113,242.621857 
	C2.935950,244.008652 3.093955,245.017044 3.181543,246.376862 
	C3.327415,247.386963 3.543703,248.045654 3.668413,249.034424 
	C3.780790,250.248566 3.984745,251.132660 4.140008,252.334381 
	C4.268519,253.028046 4.445722,253.404053 4.548571,254.068939 
	C4.691184,254.908813 4.908151,255.459839 5.081860,256.353424 
	C5.306856,257.310089 5.575111,257.924225 5.834464,258.900757 
	C8.270418,265.032288 10.104197,271.165344 13.280613,276.498718 
	C21.180325,289.762848 31.740067,299.839691 48.245831,301.970306 
	C48.655151,302.054657 48.827866,302.023773 49.297791,302.174591 
	C50.732994,302.521729 51.870987,302.687103 53.243053,302.984802 
	C53.652195,303.078583 53.827259,303.040009 54.263527,303.132751 
	C55.093227,303.305389 55.661728,303.346741 56.477325,303.587097 
	C57.140335,303.783936 57.556244,303.781769 58.323334,303.903015 
	C60.127762,304.235565 61.581005,304.444733 63.259117,304.772095 
	C63.650223,304.857941 63.816460,304.825623 64.303032,304.929230 
	C65.543030,305.111694 66.462708,305.158295 67.595459,305.400635 
	C68.182419,305.592712 68.556305,305.589081 69.336212,305.720337 
	C72.833237,306.163910 75.924240,306.472565 79.251495,306.887451 
	C79.655449,306.952454 79.823143,306.911255 80.317459,307.001709 
	C81.341988,307.123077 82.039909,307.112793 82.893105,307.234497 
	C83.048386,307.366425 83.449081,307.432770 83.449081,307.432770 
	C83.449081,307.432770 83.805557,307.238312 84.163605,307.425720 
	C85.054504,307.567291 85.587357,307.521454 86.310669,307.584808 
	C86.501137,307.694000 86.881836,307.475220 87.306419,307.561462 
	C88.572365,307.496735 89.413727,307.345764 90.463524,307.296326 
	C91.102875,307.264038 91.533798,307.130249 91.978394,307.005920 
	C91.992081,307.015381 92.013680,306.990051 92.378326,307.054077 
	C94.127808,306.758209 95.512642,306.398285 96.952034,306.063477 
	C97.006592,306.088562 97.079620,305.993195 97.398499,306.043701 
	C98.683861,305.741760 99.650330,305.389282 101.047226,304.992920 
	C101.730797,304.810760 101.983940,304.672516 102.414520,304.600952 
	C102.879013,304.455505 103.166069,304.243408 103.958862,303.944275 
	C104.750313,303.669128 105.036034,303.480957 105.393272,303.393402 
	C105.464790,303.494019 105.626404,303.134888 106.085190,303.021179 
	C106.819229,302.753998 107.094482,302.600586 107.493454,302.529694 
	C107.989807,302.541809 108.131897,302.355927 108.404190,301.981995 
	C108.954636,301.753998 109.144348,301.598480 109.592178,301.480225 
	C110.568108,301.021698 111.285912,300.525909 112.320648,299.946625 
	C113.438492,299.232910 114.239395,298.602692 115.333847,297.927704 
	C116.060555,297.594055 116.493729,297.305206 117.200180,296.963623 
	C117.665337,296.611267 117.857201,296.311646 118.338753,295.959625 
	C119.045166,295.617340 119.461899,295.327454 120.175171,294.970032 
	C121.470390,293.934174 122.469063,292.965881 123.866928,292.128296 
	C124.526459,291.848114 124.786797,291.437286 125.021927,291.014923 
	C124.996712,291.003418 125.016533,291.055237 125.348724,291.241882 
	C137.466385,282.274170 145.532715,270.397003 149.641296,256.212341 
	C157.869202,227.805817 148.503052,204.023544 129.151962,183.221375 
	C128.470932,182.489273 127.141235,182.360611 125.976624,181.646362 
	C123.909966,179.521973 121.980537,177.701965 119.946106,175.598358 
	C119.265022,175.185867 118.688942,175.056946 117.989365,174.657654 
	C117.307007,174.235092 116.748154,174.082901 116.116119,173.595688 
	C115.748909,172.693756 115.454880,172.126816 115.262329,171.205597 
	C116.859001,155.409698 113.655205,149.714905 100.263153,143.716232 
	C100.160698,142.979416 100.037270,142.498810 99.962097,141.648453 
	C99.863823,140.809570 99.717293,140.340454 99.622894,139.681122 
	C99.675034,139.490906 99.376472,139.233093 99.437454,138.844742 
	C99.713890,137.434586 99.929344,136.412766 100.345139,135.231476 
	C100.583519,134.746216 100.621544,134.420441 100.828506,133.819077 
	C101.008362,133.328247 101.019272,133.113007 101.269211,132.659058 
	C101.738419,131.315308 101.968597,130.210312 102.117561,129.066833 
	C102.036346,129.028366 102.176247,129.141205 102.413780,128.960526 
	C102.719269,128.197388 102.787231,127.614937 103.040207,126.730423 
	C103.486237,125.293518 103.747261,124.158653 104.158661,122.919067 
	C104.490891,122.594200 104.500671,122.366707 104.568130,121.810272 
	C105.192337,119.971352 105.586815,118.454033 106.133774,116.851433 
	C106.500130,116.562088 106.501984,116.356239 106.518814,115.823318 
	C107.158218,113.979507 107.570618,112.460999 108.135139,110.855667 
	C108.499901,110.563988 108.502098,110.357033 108.522095,109.813751 
	C109.496407,106.973198 110.242470,104.466858 111.139656,101.866997 
	C111.496849,101.572220 111.512489,101.357185 111.571869,100.803627 
	C112.438591,98.611328 113.163773,96.769272 113.686050,94.871384 
	C115.152267,89.543213 116.534843,84.192017 118.093491,78.722702 
	C118.139023,78.120674 118.041496,77.645836 117.901413,76.725174 
	C117.625587,76.092972 117.392326,75.906601 117.391991,75.513680 
	C118.139595,75.200165 118.654274,75.093208 119.127106,74.994957 
	C118.775162,74.816193 118.377106,74.613998 118.311775,74.198654 
	C118.724937,73.734642 118.805367,73.483788 119.117439,72.926056 
	C120.093239,72.324547 121.346382,72.196548 121.505531,71.710411 
	C124.083763,63.834663 126.523163,55.913475 129.082184,47.652100 
	C129.968903,45.933800 130.989731,44.648163 131.530701,43.185101 
	C135.716080,31.865797 139.788071,20.504631 143.940704,9.173127 
	C145.488892,4.948563 143.046982,4.676130 139.742111,4.654746 
	C136.751785,4.303554 133.955246,4.264439 130.726562,4.152316 
	C121.844353,4.735568 113.394325,5.391829 104.968826,6.061501 
	C104.993362,6.074911 105.041374,6.046062 104.994919,5.844192 
	C104.703545,5.490720 104.437790,5.429537 103.882515,5.169149 
	C101.342056,2.619140 98.873238,1.660475 95.609016,3.845653 
	C94.781929,4.623877 94.096672,5.204907 93.834038,5.937459 
	C88.212387,21.617357 82.638100,37.314240 76.862083,53.285805 
	C76.220711,55.057045 75.771866,56.550304 75.172501,58.266476 
	C75.007591,58.668129 74.993202,58.846863 74.610931,58.963795 
	C69.774338,46.761879 65.450142,34.565811 60.779655,22.503826 
	C58.211231,15.870611 55.059982,9.463067 52.069962,2.679965 
	C51.645611,1.937437 51.322807,1.468718 51.000000,0.999999 
z"/>
<path fill="#E40515" opacity="1.000000" stroke="none" 
	d="
M34.000000,1.000000 
	C35.066517,1.000000 36.133038,1.000000 37.727989,1.332979 
	C39.504284,1.443973 40.752140,1.221987 42.000000,1.000000 
	C42.750000,1.000000 43.500000,1.000000 44.590897,1.389512 
	C41.697872,5.677833 42.805813,9.675415 44.449165,13.835834 
	C50.535526,29.244484 56.447254,44.722290 62.569443,60.116508 
	C64.567039,65.139458 67.006653,69.986610 69.148026,75.280914 
	C68.073524,78.431892 67.095116,81.216125 66.052185,84.356743 
	C65.854141,85.423866 65.720619,86.134598 65.386856,87.050041 
	C65.107727,87.813057 65.028831,88.371361 64.747971,89.142105 
	C64.383194,89.898499 64.220383,90.442451 63.896679,91.274780 
	C63.487347,92.375603 63.238907,93.188072 62.806763,94.173683 
	C62.565971,94.820694 62.508888,95.294548 62.261280,96.115387 
	C61.036175,99.611954 60.001598,102.761551 58.740616,106.156052 
	C58.323807,107.259956 58.133404,108.118950 57.710770,109.241646 
	C56.484280,112.370758 55.490017,115.236168 54.334011,117.717819 
	C49.986774,99.903595 46.419167,82.294350 38.038895,66.162697 
	C36.137859,62.503284 34.641930,58.528202 33.633327,54.528507 
	C29.148314,36.742813 20.029703,21.078480 11.830698,4.899314 
	C14.141648,4.349358 16.087341,4.075786 18.023737,3.747387 
	C23.351240,2.843881 28.674850,1.917394 34.000000,1.000000 
z"/>
<path fill="#0E6CB3" opacity="1.000000" stroke="none" 
	d="
M69.244110,74.914169 
	C67.006653,69.986610 64.567039,65.139458 62.569443,60.116508 
	C56.447254,44.722290 50.535526,29.244484 44.449165,13.835834 
	C42.805813,9.675415 41.697872,5.677833 44.965897,1.389512 
	C46.714359,1.000000 48.428715,1.000000 50.571541,0.999999 
	C51.322807,1.468718 51.645611,1.937437 51.894543,3.016022 
	C51.282074,5.151015 49.939110,6.943415 50.341930,8.155736 
	C52.246536,13.887791 54.628429,19.461256 56.869888,25.467621 
	C59.572460,33.231049 62.245346,40.618107 64.911774,48.340332 
	C65.256630,49.475029 65.607948,50.274559 65.959442,51.450279 
	C66.985542,54.745575 67.856026,57.731293 69.072128,60.568893 
	C71.129486,65.369446 72.384827,70.091072 69.244110,74.914169 
z"/>
<path fill="#F8F1EF" opacity="1.000000" stroke="none" 
	d="
M33.531342,1.000000 
	C28.674850,1.917394 23.351240,2.843881 18.023737,3.747387 
	C16.087341,4.075786 14.141648,4.349358 11.621912,4.688545 
	C10.136124,4.437887 9.228621,4.146630 8.065488,3.653567 
	C6.529171,3.969982 5.248485,4.488203 3.984807,5.009420 
	C4.001815,5.012417 4.005404,4.979013 3.686580,4.993403 
	C2.578504,5.671863 1.789252,6.335931 1.000000,7.000000 
	C1.000000,5.022717 1.000000,3.045435 1.000000,1.000000 
	C11.687484,1.000000 22.375084,1.000000 33.531342,1.000000 
z"/>
<path fill="#1B69A9" opacity="1.000000" stroke="none" 
	d="
M1.000000,7.399996 
	C1.789252,6.335931 2.578504,5.671863 3.762510,5.382941 
	C4.725604,7.961499 5.225750,10.185275 5.876469,12.364081 
	C7.234907,16.912544 8.672861,21.437258 10.078149,25.971727 
	C7.279383,21.046225 4.480616,16.120720 1.340925,11.097609 
	C1.000000,9.933331 1.000000,8.866661 1.000000,7.399996 
z"/>
<path fill="#F0AB88" opacity="1.000000" stroke="none" 
	d="
M41.600010,1.000000 
	C40.752140,1.221987 39.504284,1.443973 38.128212,1.332979 
	C39.066673,1.000000 40.133347,1.000000 41.600010,1.000000 
z"/>
<path fill="#40210E" opacity="1.000000" stroke="none" 
	d="
M10.061438,25.965223 
	C8.672861,21.437258 7.234907,16.912544 5.876469,12.364081 
	C5.225750,10.185275 4.725604,7.961499 4.081333,5.368551 
	C4.005404,4.979013 4.001815,5.012417 4.369401,5.066187 
	C5.509171,5.031407 6.281357,4.942856 7.332048,5.074533 
	C12.402228,18.218922 17.193903,31.143085 21.987919,44.398331 
	C22.325361,45.487514 22.660460,46.245617 23.189373,47.318993 
	C29.919928,66.770622 36.456665,85.906982 42.992580,105.375076 
	C43.323761,106.463394 43.655766,107.219986 44.004845,107.985954 
	C44.021915,107.995338 44.010571,108.032616 44.004387,108.364204 
	C44.318954,109.461708 44.639702,110.227631 44.986454,111.000511 
	C45.012455,111.007477 44.986446,111.054611 44.987915,111.386734 
	C45.323467,112.480095 45.657555,113.241348 46.138359,114.325638 
	C46.856049,116.452377 47.427021,118.256065 47.995110,120.386963 
	C48.309956,121.468216 48.627686,122.222267 49.172394,123.234085 
	C49.848972,124.773674 50.298569,126.055496 51.129353,128.424088 
	C52.496422,124.232201 53.496086,121.166885 54.495750,118.101578 
	C55.490017,115.236168 56.484280,112.370758 57.990990,109.043205 
	C58.657963,107.691086 58.812496,106.801117 58.967026,105.911140 
	C60.001598,102.761551 61.036175,99.611954 62.411026,95.939072 
	C62.831020,94.944031 62.910744,94.472282 62.990467,94.000534 
	C63.238907,93.188072 63.487347,92.375603 64.264740,91.280243 
	C65.530823,90.997360 66.267967,90.997375 67.262352,90.997971 
	C67.691093,90.997375 67.862587,90.996185 68.103470,91.384216 
	C65.063545,101.195946 61.954220,110.618462 58.614922,120.251358 
	C58.250885,121.273880 58.116825,122.086021 57.940483,123.272263 
	C56.946568,127.413033 55.994938,131.179718 55.064171,135.255157 
	C55.615540,136.010956 56.146038,136.457962 56.676537,136.904968 
	C56.777691,136.296265 56.878841,135.687561 57.394455,135.016754 
	C59.478603,134.924591 61.148289,134.894531 63.180130,134.884796 
	C64.021156,134.966919 64.500031,135.028687 64.986259,135.316772 
	C64.993614,135.543060 65.002396,135.996323 64.723572,136.038589 
	C64.306580,136.298813 64.168419,136.516769 64.030258,136.734726 
	C64.142792,136.805725 64.254784,136.937500 64.367950,136.938522 
	C65.906204,136.952164 67.444618,136.947693 69.552498,136.947693 
	C68.378685,137.890274 67.695702,138.438705 66.755554,138.990036 
	C66.326950,138.991776 66.155502,138.990646 65.805222,138.739899 
	C64.756378,138.656586 63.886375,138.822876 62.569588,138.992996 
	C59.442764,139.495941 56.762718,139.995071 54.132690,140.810150 
	C54.095615,141.756683 54.008526,142.387283 53.649498,143.305756 
	C53.489269,146.705475 53.600979,149.817337 53.879227,153.225830 
	C54.720619,154.108963 55.395470,154.695465 56.397861,155.517990 
	C61.810886,155.528839 66.896370,155.303665 72.445335,154.996033 
	C79.277344,154.967911 85.645874,155.022247 92.207077,155.313690 
	C93.264565,155.362823 94.129379,155.174850 94.997093,154.993866 
	C95.000000,155.000854 94.985870,154.993683 95.257507,154.821564 
	C95.995529,153.676529 96.461922,152.703598 96.692993,151.496597 
	C96.287445,142.679245 96.287392,142.679443 87.892609,140.304321 
	C87.735138,140.259796 87.584618,140.190643 86.970673,140.106522 
	C86.203522,140.094467 85.896561,140.108841 85.164581,140.191422 
	C81.823532,140.144714 78.907516,140.029816 75.995903,139.577911 
	C76.320648,138.182724 76.640984,137.124542 77.431564,136.045441 
	C82.714363,135.979675 87.526924,135.934799 92.694115,135.820236 
	C94.032837,134.676224 95.494499,133.765686 95.927773,132.502411 
	C100.719322,118.532158 105.193573,104.451500 110.108162,90.525826 
	C111.936569,85.344940 114.694389,80.492065 117.032883,75.534729 
	C117.037384,75.579849 117.159065,75.720238 117.159065,75.720238 
	C117.392326,75.906601 117.625587,76.092972 117.895187,77.004974 
	C117.937813,78.103714 117.944115,78.476807 117.950417,78.849907 
	C116.534843,84.192017 115.152267,89.543213 113.686050,94.871384 
	C113.163773,96.769272 112.438591,98.611328 111.471451,100.921448 
	C111.031075,101.548843 110.981636,101.747673 110.988541,101.960518 
	C110.242470,104.466858 109.496407,106.973198 108.432991,109.929146 
	C108.021713,110.554970 107.977501,110.742882 107.983017,110.942490 
	C107.570618,112.460999 107.158218,113.979507 106.430313,115.937798 
	C106.021240,116.552223 105.976730,116.738602 105.981293,116.936707 
	C105.586815,118.454033 105.192337,119.971352 104.466057,121.938080 
	C104.029510,122.587158 103.987518,122.799263 104.008286,123.023796 
	C103.747261,124.158653 103.486237,125.293518 102.810181,126.921478 
	C102.322174,127.990128 102.249207,128.565659 102.176247,129.141205 
	C102.176247,129.141205 102.036346,129.028366 101.804131,129.235229 
	C101.391335,130.593979 101.210762,131.745880 101.030190,132.897781 
	C101.019272,133.113007 101.008362,133.328247 100.650482,133.987976 
	C100.131119,134.732147 100.078209,135.051636 100.144798,135.390961 
	C99.929344,136.412766 99.713890,137.434586 99.352898,138.922577 
	C99.178513,139.658813 99.299644,139.819672 99.570755,139.871338 
	C99.717293,140.340454 99.863823,140.809570 99.761993,141.777832 
	C99.756477,142.842148 99.999329,143.407303 100.242172,143.972458 
	C113.655205,149.714905 116.859001,155.409698 115.239716,171.560455 
	C115.473511,172.823288 115.831406,173.376999 116.189301,173.930695 
	C116.748154,174.082901 117.307007,174.235092 117.982513,174.960388 
	C118.749809,175.649628 119.400459,175.765793 120.051109,175.881943 
	C121.980537,177.701965 123.909966,179.521973 125.906448,181.884918 
	C125.973495,182.427826 126.033440,182.921616 126.063591,183.251022 
	C126.734482,184.051437 127.375214,184.522446 128.291840,185.186493 
	C131.436523,189.559052 134.698181,193.527557 137.082718,197.967194 
	C140.728333,204.754700 143.768616,211.867325 147.042633,219.187469 
	C147.313766,220.348145 147.608154,221.163269 148.015472,222.238068 
	C148.129898,222.871582 148.131393,223.245422 148.091827,223.977966 
	C148.289337,225.209030 148.527954,226.081375 148.873840,227.337891 
	C149.023087,229.043228 149.065079,230.364410 149.067200,232.168579 
	C149.054138,235.540665 149.080933,238.429764 149.185303,241.656128 
	C149.145813,242.669617 149.028732,243.345840 148.641479,244.301773 
	C148.288025,246.177979 148.204727,247.774475 148.162415,249.655334 
	C148.092072,250.302673 147.980728,250.665649 147.624908,251.260803 
	C147.274323,252.378540 147.168198,253.264084 147.057571,254.523407 
	C144.398392,265.357117 139.158401,274.446136 132.280289,282.653442 
	C129.902634,285.490570 127.440224,288.256683 125.016541,291.055237 
	C125.016533,291.055237 124.996712,291.003418 124.680481,290.999084 
	C124.065407,291.329010 123.766579,291.663300 123.467743,291.997589 
	C122.469063,292.965881 121.470390,293.934174 119.891960,294.967896 
	C118.891151,295.359528 118.470108,295.685760 118.049072,296.012024 
	C117.857201,296.311646 117.665337,296.611267 116.913521,296.967682 
	C115.915817,297.340485 115.478058,297.656494 115.040298,297.972473 
	C114.239395,298.602692 113.438492,299.232910 112.005478,299.930176 
	C110.693596,300.479156 110.013824,300.961060 109.334053,301.442993 
	C109.144348,301.598480 108.954636,301.753998 108.292122,301.951050 
	C107.535446,302.028107 107.385590,302.179657 107.369728,302.447205 
	C107.094482,302.600586 106.819229,302.753998 106.016953,302.991211 
	C105.489937,303.074982 105.321754,303.292786 105.321754,303.292786 
	C105.036034,303.480957 104.750313,303.669128 103.783447,303.919434 
	C102.813889,304.165833 102.525490,304.350037 102.237091,304.534241 
	C101.983940,304.672516 101.730797,304.810760 100.726105,304.960815 
	C99.009575,305.312836 98.044601,305.653015 97.079620,305.993195 
	C97.079620,305.993195 97.006592,306.088562 96.577286,306.036285 
	C94.769882,306.319366 93.391785,306.654694 92.013680,306.990051 
	C92.013680,306.990051 91.992081,307.015381 91.760582,306.985992 
	C91.104416,307.035980 90.679756,307.115387 90.255096,307.194794 
	C89.413727,307.345764 88.572365,307.496735 87.234070,307.460541 
	C86.473839,307.153381 86.268188,307.220795 86.120209,307.475616 
	C85.587357,307.521454 85.054504,307.567291 83.995987,307.348083 
	C83.224281,307.019135 82.980118,307.025635 82.737823,307.102539 
	C82.039909,307.112793 81.341988,307.123077 80.236450,306.849182 
	C79.557640,306.637085 79.286446,306.709167 79.015244,306.781250 
	C75.924240,306.472565 72.833237,306.163910 69.112305,305.556366 
	C68.115715,305.239960 67.749046,305.222412 67.382378,305.204895 
	C66.462708,305.158295 65.543030,305.111694 64.226326,304.786041 
	C63.526722,304.276215 63.261707,304.325195 63.034248,304.653931 
	C61.581005,304.444733 60.127762,304.235565 58.077759,303.699585 
	C57.064075,303.377899 56.647152,303.383026 56.230225,303.388123 
	C55.661728,303.346741 55.093227,303.305389 54.189655,302.965210 
	C53.572716,302.728455 53.290852,302.790466 53.008980,302.852478 
	C51.870987,302.687103 50.732994,302.521729 49.223797,302.007629 
	C48.571472,301.724274 48.290352,301.789673 48.009228,301.855042 
	C31.740067,299.839691 21.180325,289.762848 13.280613,276.498718 
	C10.104197,271.165344 8.270418,265.032288 5.871073,258.551025 
	C5.652762,257.229492 5.388940,256.620178 5.125118,256.010864 
	C4.908151,255.459839 4.691184,254.908813 4.617664,253.748230 
	C4.570308,252.764694 4.379505,252.390717 4.188700,252.016739 
	C3.984745,251.132660 3.780790,250.248566 3.735640,248.676102 
	C3.680284,247.333618 3.466124,246.679535 3.251961,246.025436 
	C3.093955,245.017044 2.935950,244.008652 2.886678,242.375351 
	C2.939829,241.262497 2.884247,240.774567 2.828665,240.286621 
	C2.707568,237.387619 2.586471,234.488632 2.730765,230.881851 
	C2.997620,229.455582 2.999082,228.737091 3.000545,228.018600 
	C3.013596,227.248260 3.026647,226.477905 3.370438,225.058502 
	C3.720939,223.705841 3.740700,223.002228 3.760461,222.298630 
	C3.815066,221.397034 3.869671,220.495438 4.296743,219.024658 
	C4.724868,217.770462 4.780526,217.085464 4.836184,216.400467 
	C4.910749,215.778671 4.985314,215.156891 5.371077,214.043701 
	C5.731569,213.196991 5.780865,212.841675 5.830163,212.486374 
	C5.866382,212.137527 5.902600,211.788681 6.276904,210.995697 
	C6.675628,210.167191 6.736267,209.782852 6.796904,209.398499 
	C12.024117,192.762650 21.928619,179.832214 37.857117,170.968460 
	C39.266380,168.619095 39.954121,166.403778 40.556892,164.462128 
	C40.981163,165.504562 41.489861,166.754410 42.230453,168.010681 
	C42.462353,168.017105 42.926243,168.023712 43.200096,168.112854 
	C43.662800,168.236618 43.851650,168.271225 44.166145,168.422775 
	C44.528297,168.363251 44.764812,168.186783 45.240738,167.769058 
	C46.148632,166.759827 47.253834,166.070587 47.408974,165.210052 
	C48.035137,161.736847 48.698765,158.210342 48.693417,154.704514 
	C48.689854,152.366226 47.579048,150.029648 46.856018,147.571808 
	C46.399685,147.334106 46.154877,147.460938 45.695045,147.959534 
	C43.881531,149.391830 42.386814,150.696381 40.569839,151.939178 
	C38.338295,148.233826 40.784210,147.134140 43.518070,145.941132 
	C45.417889,145.112076 47.115871,143.820511 48.904030,142.735580 
	C48.260715,138.865967 47.617401,134.996338 46.895309,130.495956 
	C46.578907,129.630600 46.341274,129.396011 46.103645,129.161423 
	C46.103645,129.161423 45.826347,129.072845 45.904381,128.591003 
	C45.439034,126.437614 44.895657,124.766060 44.352283,123.094498 
	C42.255066,116.956993 40.157845,110.819496 38.020046,104.165031 
	C37.931442,103.467659 37.846344,103.306877 37.724163,103.165718 
	C30.438965,82.386520 23.161070,61.604752 15.861606,40.830563 
	C14.598196,37.234917 13.243421,33.671375 11.885794,29.480522 
	C11.638083,28.601490 11.435429,28.334940 11.232775,28.068390 
	C11.232775,28.068390 11.016709,28.012489 11.039970,27.605627 
	C10.717278,26.775648 10.371326,26.352531 10.025375,25.929413 
	C10.025375,25.929413 10.044725,25.958719 10.061438,25.965223 
M124.297714,284.706451 
	C124.481834,284.382568 124.665962,284.058655 124.818481,283.852997 
	C124.818481,283.852997 124.728416,283.770142 125.475769,283.869446 
	C126.997032,281.814056 128.518311,279.758667 130.267502,277.103302 
	C134.546982,268.395050 138.826462,259.686768 143.622543,250.475037 
	C143.705597,249.516891 143.788635,248.558731 143.781631,247.043365 
	C143.892334,246.687180 144.003036,246.330994 144.649063,245.395020 
	C144.727814,243.479294 144.806564,241.563553 144.697998,238.876434 
	C144.760773,237.033157 144.823547,235.189880 144.966354,232.490051 
	C144.682159,230.668427 144.397964,228.846817 143.877213,226.512787 
	C143.875275,226.141418 143.873337,225.770065 143.950195,224.658981 
	C143.670990,223.780182 143.391800,222.901367 142.909485,221.614197 
	C142.909485,221.614197 142.937546,221.158966 142.970795,220.572342 
	C142.733948,220.063599 142.497086,219.554871 141.927048,218.362793 
	C137.715683,206.337280 131.353806,195.667999 122.684227,186.245926 
	C113.766121,176.553757 103.059486,170.541977 90.169937,167.922455 
	C78.995377,165.651474 68.039444,167.008606 57.383434,168.375351 
	C57.616459,168.155792 57.870056,167.953003 58.070709,167.707031 
	C58.135857,167.627167 58.062477,167.434311 58.052460,167.293137 
	C56.064701,168.254333 54.076939,169.215530 51.726944,170.567352 
	C50.150402,171.044739 48.573856,171.522141 46.570518,171.477478 
	C45.750004,172.080933 44.929489,172.684387 43.604286,173.735672 
	C38.945728,176.723831 33.936859,179.287430 29.698326,182.784653 
	C19.484663,191.211945 13.619576,202.513184 9.382924,215.491455 
	C9.277516,216.384293 9.172108,217.277130 9.108839,218.805756 
	C9.007417,219.215836 8.905995,219.625931 8.323857,220.559097 
	C8.258827,221.506134 8.193797,222.453156 8.220981,223.950531 
	C8.121108,224.306335 8.021236,224.662125 7.366748,225.615555 
	C7.280772,228.853714 7.194796,232.091888 7.290893,235.742752 
	C7.353276,236.054840 7.297679,236.344254 7.040323,237.548370 
	C7.333727,240.360001 7.627131,243.171616 8.132479,246.499619 
	C8.131145,246.866898 8.129810,247.234192 8.046852,248.323944 
	C8.285593,249.200287 8.524335,250.076614 9.012855,251.560837 
	C9.025436,251.996017 9.038018,252.431198 9.004940,253.547165 
	C9.287938,254.355164 9.570935,255.163177 10.212982,256.628754 
	C16.040796,274.919983 25.345306,290.156464 45.455433,296.653625 
	C45.827591,296.716766 46.199749,296.779938 47.201874,296.728119 
	C47.814960,296.898071 48.428043,297.068024 49.509033,297.673035 
	C50.138557,297.735901 50.768082,297.798767 51.951309,297.773376 
	C52.306652,297.877228 52.661995,297.981079 53.525291,298.609924 
	C54.493923,298.693909 55.462559,298.777893 57.094860,298.745819 
	C57.744541,298.905670 58.394222,299.065521 59.565880,299.689362 
	C60.496716,299.752197 61.427551,299.815033 62.924229,299.776276 
	C63.289413,299.880310 63.654602,299.984344 64.575851,300.627563 
	C66.163635,300.715698 67.751411,300.803802 69.694466,300.801605 
	C69.694466,300.801605 69.999420,301.005005 70.552391,301.582672 
	C72.483383,301.684021 74.414383,301.785370 77.084595,301.790771 
	C78.067284,301.913879 79.049965,302.037018 80.653496,302.683655 
	C84.762367,302.486145 88.871239,302.288605 93.692230,301.821533 
	C103.218719,299.696167 111.263954,294.646942 119.384903,289.496185 
	C120.846863,287.907227 122.308823,286.318268 123.854897,284.818604 
	C123.854897,284.818604 123.737167,284.853088 124.297714,284.706451 
M92.548096,160.000778 
	C92.377411,159.997955 92.206726,159.995117 91.442245,159.406891 
	C87.283081,159.293411 83.123909,159.179932 78.064926,159.010452 
	C74.697395,159.372910 71.329857,159.735367 67.036491,160.036667 
	C62.358837,160.008865 57.681183,159.981049 52.623543,159.482269 
	C52.352036,160.649429 52.080524,161.816574 52.100372,163.637070 
	C57.698158,162.769379 63.295944,161.901672 69.687851,161.017822 
	C72.467400,161.272568 75.246941,161.527298 78.815552,161.843384 
	C82.644234,162.176071 86.472923,162.508743 91.044205,162.824646 
	C92.029846,162.831619 93.015495,162.838593 94.826073,162.975784 
	C96.217331,163.000977 97.608582,163.026154 99.011993,163.742630 
	C99.267487,164.378204 99.522980,165.013779 99.778465,165.649353 
	C100.292068,165.427505 100.805672,165.205643 101.319267,164.983795 
	C100.582199,163.568466 99.845123,162.153137 98.337852,160.901169 
	C96.578491,160.608322 94.819122,160.315475 92.548096,160.000778 
M106.451729,168.579239 
	C107.842636,168.201996 110.259544,168.119690 110.465874,167.401917 
	C112.545830,160.166275 108.031387,152.241867 100.358093,150.511520 
	C100.283699,151.478638 100.209305,152.445770 100.459282,153.966431 
	C104.580475,157.408463 106.064545,161.763443 104.662781,167.289963 
	C105.076958,167.528580 105.491135,167.767181 106.451729,168.579239 
z"/>
<path fill="#E30516" opacity="1.000000" stroke="none" 
	d="
M64.978905,135.090469 
	C64.500031,135.028687 64.021156,134.966919 63.258438,134.500732 
	C64.097466,129.412033 64.811638,124.582695 66.413948,120.068611 
	C73.354317,100.515907 80.894867,81.170929 87.560387,61.527534 
	C93.785980,43.180626 99.182732,24.552464 104.944290,6.048091 
	C113.394325,5.391829 121.844353,4.735568 130.555298,4.499409 
	C128.278809,12.414279 125.938995,19.983007 123.166252,27.389666 
	C115.473717,47.938259 106.965508,68.207756 100.038704,89.006859 
	C95.909340,101.406105 94.148270,114.594391 91.329491,127.429504 
	C90.767372,129.989075 90.236809,132.555557 89.244057,135.129211 
	C80.857246,135.123184 72.918076,135.106827 64.978905,135.090469 
z"/>
<path fill="#0C6CB4" opacity="1.000000" stroke="none" 
	d="
M89.691696,135.118866 
	C90.236809,132.555557 90.767372,129.989075 91.329491,127.429504 
	C94.148270,114.594391 95.909340,101.406105 100.038704,89.006859 
	C106.965508,68.207756 115.473717,47.938259 123.166252,27.389666 
	C125.938995,19.983007 128.278809,12.414279 130.987457,4.572418 
	C133.955246,4.264439 136.751785,4.303554 139.752930,5.031764 
	C132.904205,25.780893 125.850838,45.840927 118.550636,66.169983 
	C118.513046,68.702339 114.341454,71.340950 118.885788,73.232925 
	C118.805367,73.483788 118.724937,73.734642 118.279602,74.394821 
	C117.619255,75.032623 117.323814,75.261108 117.028381,75.489609 
	C114.694389,80.492065 111.936569,85.344940 110.108162,90.525826 
	C105.193573,104.451500 100.719322,118.532158 95.927773,132.502411 
	C95.494499,133.765686 94.032837,134.676224 92.405594,135.612305 
	C91.072197,135.355652 90.381950,135.237259 89.691696,135.118866 
z"/>
<path fill="#0E6CB4" opacity="1.000000" stroke="none" 
	d="
M104.968826,6.061502 
	C99.182732,24.552464 93.785980,43.180626 87.560387,61.527534 
	C80.894867,81.170929 73.354317,100.515907 66.413948,120.068611 
	C64.811638,124.582695 64.097466,129.412033 62.896286,134.480377 
	C61.148289,134.894531 59.478603,134.924591 57.078121,134.934830 
	C55.912655,134.925476 55.477982,134.935944 55.043304,134.946396 
	C55.994938,131.179718 56.946568,127.413033 58.166214,123.060379 
	C58.571117,121.663261 58.708008,120.852119 58.844894,120.040985 
	C61.954220,110.618462 65.063545,101.195946 68.260437,91.064339 
	C68.619896,89.256523 68.891785,88.157791 69.400154,86.980072 
	C69.972488,86.756393 70.169708,86.503555 70.456581,85.861832 
	C73.844292,76.174950 77.003700,66.768814 80.394646,57.067963 
	C86.368912,40.748852 92.054733,24.703588 97.912132,8.721211 
	C98.855042,6.148410 98.585655,4.612854 95.947678,3.719028 
	C98.873238,1.660475 101.342056,2.619140 103.968155,5.389426 
	C104.322502,5.899327 104.621254,6.268707 104.621254,6.268707 
	C104.621254,6.268707 105.041374,6.046062 105.041374,6.046062 
	C105.041374,6.046062 104.993362,6.074911 104.968826,6.061502 
z"/>
<path fill="#F2C30B" opacity="1.000000" stroke="none" 
	d="
M148.132904,223.619247 
	C148.131393,223.245422 148.129898,222.871582 148.042130,221.903427 
	C147.659195,220.486710 147.362534,219.664307 147.065872,218.841919 
	C143.768616,211.867325 140.728333,204.754700 137.082718,197.967194 
	C134.698181,193.527557 131.436523,189.559052 128.189728,184.908875 
	C127.218956,183.932693 126.626198,183.427155 126.033440,182.921616 
	C126.033440,182.921616 125.973495,182.427826 126.043678,182.189270 
	C127.141235,182.360611 128.470932,182.489273 129.151962,183.221375 
	C148.503052,204.023544 157.869202,227.805817 149.641296,256.212341 
	C145.532715,270.397003 137.466385,282.274170 125.348724,291.241882 
	C127.440224,288.256683 129.902634,285.490570 132.280289,282.653442 
	C139.158401,274.446136 144.398392,265.357117 147.268494,254.265350 
	C147.612396,252.765213 147.740875,251.896912 147.869385,251.028625 
	C147.980728,250.665649 148.092072,250.302673 148.360168,249.309967 
	C148.648499,247.127518 148.780075,245.574799 148.911652,244.022079 
	C149.028732,243.345840 149.145813,242.669617 149.384277,241.293915 
	C149.372787,237.624847 149.239929,234.655228 149.107071,231.685608 
	C149.065079,230.364410 149.023087,229.043228 148.927795,226.991943 
	C148.627274,225.380997 148.380081,224.500122 148.132904,223.619247 
z"/>
<path fill="#492312" opacity="1.000000" stroke="none" 
	d="
M95.609016,3.845653 
	C98.585655,4.612854 98.855042,6.148410 97.912132,8.721211 
	C92.054733,24.703588 86.368912,40.748852 80.331848,56.724495 
	C79.692360,56.111782 79.347198,55.547829 78.961441,54.669472 
	C78.298759,53.905987 77.676689,53.456905 77.054611,53.007820 
	C82.638100,37.314240 88.212387,21.617357 93.834038,5.937459 
	C94.096672,5.204907 94.781929,4.623877 95.609016,3.845653 
z"/>
<path fill="#412313" opacity="1.000000" stroke="none" 
	d="
M118.797485,65.900963 
	C125.850838,45.840927 132.904205,25.780893 139.946747,5.343843 
	C143.046982,4.676130 145.488892,4.948563 143.940704,9.173127 
	C139.788071,20.504631 135.716080,31.865797 131.530701,43.185101 
	C130.989731,44.648163 129.968903,45.933800 128.767456,47.821037 
	C125.736938,54.910580 123.109337,61.480705 120.508446,67.984039 
	C120.006256,67.372627 119.401871,66.636795 118.797485,65.900963 
z"/>
<path fill="#412516" opacity="1.000000" stroke="none" 
	d="
M56.840199,25.091248 
	C54.628429,19.461256 52.246536,13.887791 50.341930,8.155736 
	C49.939110,6.943415 51.282074,5.151015 51.996086,3.289831 
	C55.059982,9.463067 58.211231,15.870611 60.779655,22.503826 
	C65.450142,34.565811 69.774338,46.761879 74.578644,59.281689 
	C74.276360,60.107391 73.638481,60.553391 72.956268,60.678116 
	C72.273499,59.895603 71.635078,59.434361 70.995056,58.640305 
	C70.668694,57.542683 70.343933,56.777870 70.011246,56.005363 
	C70.003326,55.997669 69.996231,55.976730 69.992004,55.612087 
	C69.653915,53.847599 69.320053,52.447750 68.808731,50.784935 
	C67.740601,50.706005 66.849930,50.890049 65.959259,51.074093 
	C65.607948,50.274559 65.256630,49.475029 65.272049,48.284721 
	C66.032211,47.268749 66.903862,46.467449 66.748116,46.044479 
	C63.908501,38.333023 60.945480,30.667009 58.005131,22.695927 
	C57.904732,21.898165 57.807899,21.395815 57.711067,20.893465 
	C57.473675,20.971991 57.236282,21.050516 56.998894,21.129042 
	C57.329929,21.754456 57.660961,22.379869 57.963646,23.321980 
	C57.570263,24.122868 57.205231,24.607058 56.840199,25.091248 
z"/>
<path fill="#3D1E0E" opacity="1.000000" stroke="none" 
	d="
M41.998558,168.004272 
	C41.489861,166.754410 40.981163,165.504562 40.556892,164.462128 
	C39.954121,166.403778 39.266380,168.619095 38.185104,170.878967 
	C37.468845,165.952332 37.039444,160.985291 36.846210,156.009109 
	C36.474697,146.441956 38.751141,143.869110 48.567398,142.770920 
	C47.115871,143.820511 45.417889,145.112076 43.518070,145.941132 
	C40.784210,147.134140 38.338295,148.233826 40.638569,152.366425 
	C41.403141,156.108047 41.776726,159.360703 42.125748,162.838562 
	C42.111824,163.378143 42.223881,163.650742 42.553288,164.232666 
	C42.664200,165.073883 42.659184,165.563995 42.473831,166.250519 
	C42.195183,166.966049 42.096867,167.485153 41.998558,168.004272 
z"/>
<path fill="#442517" opacity="1.000000" stroke="none" 
	d="
M118.550644,66.169983 
	C119.401871,66.636795 120.006256,67.372627 120.508446,67.984039 
	C123.109337,61.480705 125.736938,54.910580 128.679260,48.171509 
	C126.523163,55.913475 124.083763,63.834663 121.505531,71.710411 
	C121.346382,72.196548 120.093239,72.324547 119.117439,72.926056 
	C114.341454,71.340950 118.513046,68.702339 118.550644,66.169983 
z"/>
<path fill="#492312" opacity="1.000000" stroke="none" 
	d="
M73.000610,60.999390 
	C73.638481,60.553391 74.276360,60.107391 74.946518,59.343494 
	C74.993202,58.846863 75.007591,58.668129 75.330795,58.389286 
	C75.823822,58.492424 75.943443,58.728409 76.127029,59.300812 
	C76.165405,60.736847 76.075226,61.869202 75.643860,63.033585 
	C74.215317,63.378326 73.127960,63.691036 72.056259,63.684494 
	C72.381493,62.576622 72.691048,61.788006 73.000610,60.999390 
z"/>
<path fill="#412516" opacity="1.000000" stroke="none" 
	d="
M75.998474,58.997139 
	C75.943443,58.728409 75.823822,58.492424 75.481316,58.166370 
	C75.771866,56.550304 76.220711,55.057045 76.862083,53.285805 
	C77.676689,53.456905 78.298759,53.905987 78.937210,54.971153 
	C78.629936,56.062038 78.306274,56.536835 77.743439,57.175064 
	C77.336868,57.879410 77.169479,58.420315 76.751144,58.968662 
	C76.332947,58.983116 76.165710,58.990128 75.998474,58.997139 
z"/>
<path fill="#412314" opacity="1.000000" stroke="none" 
	d="
M44.329338,123.451096 
	C44.895657,124.766060 45.439034,126.437614 45.921001,128.446411 
	C45.341862,127.125008 44.824131,125.466354 44.329338,123.451096 
z"/>
<path fill="#442716" opacity="1.000000" stroke="none" 
	d="
M117.032883,75.534729 
	C117.323814,75.261108 117.619255,75.032623 117.946869,74.607971 
	C118.377106,74.613998 118.775162,74.816193 119.127106,74.994957 
	C118.654274,75.093208 118.139595,75.200165 117.391991,75.513680 
	C117.159065,75.720238 117.037384,75.579849 117.032883,75.534729 
z"/>
<path fill="#472713" opacity="1.000000" stroke="none" 
	d="
M109.592178,301.480225 
	C110.013824,300.961060 110.693596,300.479156 111.688538,300.013672 
	C111.285912,300.525909 110.568108,301.021698 109.592178,301.480225 
z"/>
<path fill="#472713" opacity="1.000000" stroke="none" 
	d="
M92.378326,307.054077 
	C93.391785,306.654694 94.769882,306.319366 96.522736,306.011169 
	C95.512642,306.398285 94.127808,306.758209 92.378326,307.054077 
z"/>
<path fill="#472713" opacity="1.000000" stroke="none" 
	d="
M119.946106,175.598358 
	C119.400459,175.765793 118.749809,175.649628 118.106018,175.230743 
	C118.688942,175.056946 119.265022,175.185867 119.946106,175.598358 
z"/>
<path fill="#472713" opacity="1.000000" stroke="none" 
	d="
M97.398499,306.043701 
	C98.044601,305.653015 99.009575,305.312836 100.295677,305.004730 
	C99.650330,305.389282 98.683861,305.741760 97.398499,306.043701 
z"/>
<path fill="#472713" opacity="1.000000" stroke="none" 
	d="
M100.263153,143.716232 
	C99.999329,143.407303 99.756477,142.842148 99.713737,142.147614 
	C100.037270,142.498810 100.160698,142.979416 100.263153,143.716232 
z"/>
<path fill="#442716" opacity="1.000000" stroke="none" 
	d="
M118.093491,78.722702 
	C117.944115,78.476807 117.937813,78.103714 117.937744,77.450806 
	C118.041496,77.645836 118.139023,78.120674 118.093491,78.722702 
z"/>
<path fill="#442716" opacity="1.000000" stroke="none" 
	d="
M101.269211,132.659058 
	C101.210762,131.745880 101.391335,130.593979 101.885345,129.273682 
	C101.968597,130.210312 101.738419,131.315308 101.269211,132.659058 
z"/>
<path fill="#472713" opacity="1.000000" stroke="none" 
	d="
M2.858820,228.263367 
	C2.999082,228.737091 2.997620,229.455582 2.914423,230.429352 
	C2.794159,229.959122 2.755627,229.233627 2.858820,228.263367 
z"/>
<path fill="#472713" opacity="1.000000" stroke="none" 
	d="
M90.463524,307.296326 
	C90.679756,307.115387 91.104416,307.035980 91.746902,306.976532 
	C91.533798,307.130249 91.102875,307.264038 90.463524,307.296326 
z"/>
<path fill="#472713" opacity="1.000000" stroke="none" 
	d="
M2.705527,240.518494 
	C2.884247,240.774567 2.939829,241.262497 2.951846,241.996948 
	C2.799650,241.745773 2.691019,241.248062 2.705527,240.518494 
z"/>
<path fill="#472713" opacity="1.000000" stroke="none" 
	d="
M102.414520,304.600952 
	C102.525490,304.350037 102.813889,304.165833 103.277710,304.006470 
	C103.166069,304.243408 102.879013,304.455505 102.414520,304.600952 
z"/>
<path fill="#472713" opacity="1.000000" stroke="none" 
	d="
M107.493454,302.529694 
	C107.385590,302.179657 107.535446,302.028107 107.931381,302.023499 
	C108.131897,302.355927 107.989807,302.541809 107.493454,302.529694 
z"/>
<path fill="#1B69A9" opacity="1.000000" stroke="none" 
	d="
M10.014521,26.210056 
	C10.371326,26.352531 10.717278,26.775648 11.029799,27.494503 
	C10.665468,27.357059 10.334568,26.923882 10.014521,26.210056 
z"/>
<path fill="#472713" opacity="1.000000" stroke="none" 
	d="
M3.181545,246.376862 
	C3.466124,246.679535 3.680284,247.333618 3.827218,248.346039 
	C3.543703,248.045654 3.327415,247.386963 3.181545,246.376862 
z"/>
<path fill="#472713" opacity="1.000000" stroke="none" 
	d="
M115.333839,297.927673 
	C115.478058,297.656494 115.915817,297.340485 116.640244,297.020416 
	C116.493729,297.305206 116.060555,297.594055 115.333839,297.927673 
z"/>
<path fill="#472713" opacity="1.000000" stroke="none" 
	d="
M118.338745,295.959625 
	C118.470108,295.685760 118.891151,295.359528 119.595413,295.035431 
	C119.461899,295.327454 119.045166,295.617340 118.338745,295.959625 
z"/>
<path fill="#472713" opacity="1.000000" stroke="none" 
	d="
M5.081860,256.353424 
	C5.388940,256.620178 5.652762,257.229492 5.879975,258.188568 
	C5.575111,257.924225 5.306856,257.310089 5.081860,256.353424 
z"/>
<path fill="#472713" opacity="1.000000" stroke="none" 
	d="
M3.532406,222.574615 
	C3.740700,223.002228 3.720939,223.705841 3.477483,224.685577 
	C3.270642,224.258011 3.287496,223.554291 3.532406,222.574615 
z"/>
<path fill="#472713" opacity="1.000000" stroke="none" 
	d="
M4.608812,216.663574 
	C4.780526,217.085464 4.724868,217.770462 4.435763,218.712326 
	C4.262024,218.288361 4.321733,217.607513 4.608812,216.663574 
z"/>
<path fill="#472713" opacity="1.000000" stroke="none" 
	d="
M116.116119,173.595688 
	C115.831406,173.376999 115.473511,172.823288 115.138229,171.914734 
	C115.454880,172.126816 115.748909,172.693756 116.116119,173.595688 
z"/>
<path fill="#442716" opacity="1.000000" stroke="none" 
	d="
M102.413780,128.960526 
	C102.249207,128.565659 102.322174,127.990128 102.625168,127.223534 
	C102.787231,127.614937 102.719269,128.197388 102.413780,128.960526 
z"/>
<path fill="#472713" opacity="1.000000" stroke="none" 
	d="
M63.259117,304.772095 
	C63.261707,304.325195 63.526722,304.276215 63.905998,304.650146 
	C63.816460,304.825623 63.650223,304.857941 63.259117,304.772095 
z"/>
<path fill="#412314" opacity="1.000000" stroke="none" 
	d="
M11.213842,28.333607 
	C11.435429,28.334940 11.638083,28.601490 11.856548,29.127274 
	C11.646543,29.123947 11.420726,28.861385 11.213842,28.333607 
z"/>
<path fill="#472713" opacity="1.000000" stroke="none" 
	d="
M48.245831,301.970306 
	C48.290352,301.789673 48.571472,301.724274 48.926586,301.825867 
	C48.827866,302.023773 48.655151,302.054657 48.245831,301.970306 
z"/>
<path fill="#472713" opacity="1.000000" stroke="none" 
	d="
M53.243057,302.984802 
	C53.290852,302.790466 53.572716,302.728455 53.928452,302.833923 
	C53.827259,303.040009 53.652195,303.078583 53.243057,302.984802 
z"/>
<path fill="#472713" opacity="1.000000" stroke="none" 
	d="
M99.622894,139.681122 
	C99.299644,139.819672 99.178513,139.658813 99.291916,139.310913 
	C99.376472,139.233093 99.675034,139.490906 99.622894,139.681122 
z"/>
<path fill="#472713" opacity="1.000000" stroke="none" 
	d="
M56.477325,303.587097 
	C56.647152,303.383026 57.064075,303.377899 57.726578,303.576233 
	C57.556244,303.781769 57.140335,303.783936 56.477325,303.587097 
z"/>
<path fill="#472713" opacity="1.000000" stroke="none" 
	d="
M105.393272,303.393402 
	C105.321754,303.292786 105.489937,303.074982 105.558167,303.104919 
	C105.626404,303.134888 105.464790,303.494019 105.393272,303.393402 
z"/>
<path fill="#442716" opacity="1.000000" stroke="none" 
	d="
M100.345139,135.231476 
	C100.078209,135.051636 100.131119,134.732147 100.481544,134.263580 
	C100.621544,134.420441 100.583519,134.746216 100.345139,135.231476 
z"/>
<path fill="#472713" opacity="1.000000" stroke="none" 
	d="
M67.595459,305.400635 
	C67.749046,305.222412 68.115715,305.239960 68.706284,305.421448 
	C68.556305,305.589081 68.182419,305.592712 67.595459,305.400635 
z"/>
<path fill="#E30516" opacity="1.000000" stroke="none" 
	d="
M104.994919,5.844192 
	C105.041374,6.046062 104.621254,6.268707 104.621254,6.268707 
	C104.621254,6.268707 104.322502,5.899327 104.236862,5.679049 
	C104.437790,5.429537 104.703545,5.490720 104.994919,5.844192 
z"/>
<path fill="#472713" opacity="1.000000" stroke="none" 
	d="
M79.251495,306.887451 
	C79.286446,306.709167 79.557640,306.637085 79.909836,306.717529 
	C79.823143,306.911255 79.655449,306.952454 79.251495,306.887451 
z"/>
<path fill="#472713" opacity="1.000000" stroke="none" 
	d="
M82.893105,307.234497 
	C82.980118,307.025635 83.224281,307.019135 83.637939,307.160645 
	C83.805557,307.238312 83.449081,307.432770 83.449081,307.432770 
	C83.449081,307.432770 83.048386,307.366425 82.893105,307.234497 
z"/>
<path fill="#472713" opacity="1.000000" stroke="none" 
	d="
M86.310669,307.584808 
	C86.268188,307.220795 86.473839,307.153381 86.809494,307.374298 
	C86.881836,307.475220 86.501137,307.694000 86.310669,307.584808 
z"/>
<path fill="#442716" opacity="1.000000" stroke="none" 
	d="
M106.133766,116.851433 
	C105.976730,116.738602 106.021240,116.552223 106.203308,116.263092 
	C106.501984,116.356239 106.500130,116.562088 106.133766,116.851433 
z"/>
<path fill="#412314" opacity="1.000000" stroke="none" 
	d="
M37.644600,103.313927 
	C37.846344,103.306877 37.931442,103.467659 38.000488,103.783905 
	C37.775909,103.860291 37.623749,103.707756 37.644600,103.313927 
z"/>
<path fill="#472713" opacity="1.000000" stroke="none" 
	d="
M5.618845,212.675934 
	C5.780865,212.841675 5.731569,213.196991 5.499699,213.754562 
	C5.347259,213.593048 5.377394,213.229279 5.618845,212.675934 
z"/>
<path fill="#472713" opacity="1.000000" stroke="none" 
	d="
M6.567879,209.598999 
	C6.736267,209.782852 6.675628,210.167191 6.408000,210.763535 
	C6.246957,210.583511 6.292905,210.191513 6.567879,209.598999 
z"/>
<path fill="#472713" opacity="1.000000" stroke="none" 
	d="
M4.140009,252.334381 
	C4.379505,252.390717 4.570308,252.764694 4.692018,253.459381 
	C4.445722,253.404053 4.268519,253.028046 4.140009,252.334381 
z"/>
<path fill="#442716" opacity="1.000000" stroke="none" 
	d="
M108.135147,110.855667 
	C107.977501,110.742882 108.021713,110.554970 108.204750,110.263359 
	C108.502098,110.357033 108.499901,110.563988 108.135147,110.855667 
z"/>
<path fill="#442716" opacity="1.000000" stroke="none" 
	d="
M104.158661,122.919067 
	C103.987518,122.799263 104.029510,122.587158 104.236313,122.259674 
	C104.500671,122.366707 104.490891,122.594200 104.158661,122.919067 
z"/>
<path fill="#F2C30B" opacity="1.000000" stroke="none" 
	d="
M123.866928,292.128296 
	C123.766579,291.663300 124.065407,291.329010 124.705688,291.010559 
	C124.786797,291.437286 124.526459,291.848114 123.866928,292.128296 
z"/>
<path fill="#412314" opacity="1.000000" stroke="none" 
	d="
M46.110432,129.424408 
	C46.341274,129.396011 46.578907,129.630600 46.844658,130.126373 
	C46.620926,130.154160 46.369072,129.920776 46.110432,129.424408 
z"/>
<path fill="#442716" opacity="1.000000" stroke="none" 
	d="
M111.139656,101.866997 
	C110.981636,101.747673 111.031075,101.548843 111.237274,101.246201 
	C111.512489,101.357185 111.496849,101.572220 111.139656,101.866997 
z"/>
<path fill="#0E6DB4" opacity="1.000000" stroke="none" 
	d="
M54.334007,117.717819 
	C53.496086,121.166885 52.496422,124.232201 51.129353,128.424088 
	C50.298569,126.055496 49.848972,124.773674 49.170528,122.915421 
	C48.627121,121.579239 48.312557,120.819504 47.997993,120.059761 
	C47.427021,118.256065 46.856049,116.452377 46.134315,114.001328 
	C45.651184,112.587517 45.318813,111.821060 44.986446,111.054611 
	C44.986446,111.054611 45.012455,111.007477 44.986748,110.676468 
	C44.644215,109.574509 44.327393,108.803558 44.010574,108.032616 
	C44.010571,108.032616 44.021915,107.995338 44.000732,107.664803 
	C43.650837,106.570625 43.322121,105.806984 42.993404,105.043343 
	C36.456665,85.906982 29.919928,66.770622 23.190416,46.994106 
	C22.660288,45.591721 22.322933,44.829483 21.985577,44.067249 
	C17.193903,31.143085 12.402228,18.218922 7.489320,4.848380 
	C7.685763,4.219792 8.003441,4.037582 8.321118,3.855372 
	C9.228621,4.146630 10.136124,4.437887 11.252413,4.939915 
	C20.029703,21.078480 29.148314,36.742813 33.633327,54.528507 
	C34.641930,58.528202 36.137859,62.503284 38.038895,66.162697 
	C46.419167,82.294350 49.986774,99.903595 54.334007,117.717819 
z"/>
<path fill="#3D1E0F" opacity="1.000000" stroke="none" 
	d="
M77.982620,57.011631 
	C78.306274,56.536835 78.629936,56.062038 78.977814,55.285557 
	C79.347198,55.547829 79.692360,56.111782 80.100319,57.019203 
	C77.003700,66.768814 73.844292,76.174950 70.159454,85.670212 
	C68.461586,85.173012 67.289146,84.586685 66.116714,84.000359 
	C67.095116,81.216125 68.073524,78.431892 69.148026,75.280914 
	C72.384827,70.091072 71.129486,65.369446 69.072128,60.568893 
	C67.856026,57.731293 66.985542,54.745575 65.959442,51.450279 
	C66.849930,50.890049 67.740601,50.706005 68.551880,50.978897 
	C68.980408,52.949467 69.488319,54.463100 69.996231,55.976730 
	C69.996231,55.976730 70.003326,55.997669 70.008026,56.339470 
	C70.340706,57.445217 70.668678,58.209167 70.996658,58.973118 
	C71.635078,59.434361 72.273499,59.895603 72.956268,60.678116 
	C72.691048,61.788006 72.381493,62.576622 72.174072,63.980255 
	C72.882195,65.237572 73.488182,65.879883 74.094170,66.522186 
	C74.724464,65.348648 75.354759,64.175102 75.985046,63.001560 
	C76.075226,61.869202 76.165405,60.736847 76.127029,59.300812 
	C76.165710,58.990128 76.332947,58.983116 76.996574,58.812462 
	C77.656189,58.103096 77.819405,57.557362 77.982620,57.011631 
M72.731865,73.180527 
	C72.621162,73.025932 72.510452,72.871330 72.399757,72.716736 
	C72.421501,72.931953 72.443245,73.147163 72.731865,73.180527 
z"/>
<path fill="#3D1E0F" opacity="1.000000" stroke="none" 
	d="
M69.163681,87.059052 
	C68.891785,88.157791 68.619896,89.256523 68.191040,90.675125 
	C67.862587,90.996185 67.691093,90.997375 67.099854,90.750153 
	C66.103386,89.977715 65.526657,89.453697 64.949936,88.929672 
	C65.028831,88.371361 65.107727,87.813057 65.834709,87.097305 
	C67.376427,86.979599 68.270050,87.019325 69.163681,87.059052 
z"/>
<path fill="#3C1C0A" opacity="1.000000" stroke="none" 
	d="
M69.400154,86.980064 
	C68.270050,87.019325 67.376427,86.979599 66.034943,86.892609 
	C65.720619,86.134598 65.854141,85.423866 66.052185,84.356743 
	C67.289146,84.586685 68.461586,85.173012 69.931160,85.950958 
	C70.169708,86.503555 69.972488,86.756393 69.400154,86.980064 
z"/>
<path fill="#3C1C0A" opacity="1.000000" stroke="none" 
	d="
M64.747971,89.142105 
	C65.526657,89.453697 66.103386,89.977715 66.842606,90.749565 
	C66.267967,90.997375 65.530823,90.997360 64.425629,90.991882 
	C64.220383,90.442451 64.383194,89.898499 64.747971,89.142105 
z"/>
<path fill="#472713" opacity="1.000000" stroke="none" 
	d="
M58.740620,106.156052 
	C58.812496,106.801117 58.657963,107.691086 58.223213,108.779503 
	C58.133404,108.118950 58.323807,107.259956 58.740620,106.156052 
z"/>
<path fill="#3C1C0A" opacity="1.000000" stroke="none" 
	d="
M62.806763,94.173683 
	C62.910744,94.472282 62.831020,94.944031 62.601555,95.592094 
	C62.508888,95.294548 62.565971,94.820694 62.806763,94.173683 
z"/>
<path fill="#412213" opacity="1.000000" stroke="none" 
	d="
M58.008694,22.991337 
	C60.945480,30.667009 63.908501,38.333023 66.748116,46.044479 
	C66.903862,46.467449 66.032211,47.268749 65.278511,47.949554 
	C62.245346,40.618107 59.572460,33.231049 56.869888,25.467621 
	C57.205231,24.607058 57.570263,24.122868 57.967827,23.319172 
	C58.000355,22.999668 58.008694,22.991337 58.008694,22.991337 
z"/>
<path fill="#1B69A9" opacity="1.000000" stroke="none" 
	d="
M8.065488,3.653567 
	C8.003441,4.037582 7.685763,4.219792 7.210814,4.628154 
	C6.281357,4.942856 5.509171,5.031407 4.352392,5.063190 
	C5.248485,4.488203 6.529171,3.969982 8.065488,3.653567 
z"/>
<path fill="#F9C903" opacity="1.000000" stroke="none" 
	d="
M119.005264,288.997772 
	C111.263954,294.646942 103.218719,299.696167 92.875259,301.925659 
	C88.049751,302.073242 84.041199,302.116699 80.032654,302.160156 
	C79.049965,302.037018 78.067284,301.913879 76.365067,301.628845 
	C73.763504,301.312988 71.881462,301.158997 69.999420,301.005005 
	C69.999420,301.005005 69.694466,300.801605 69.164291,300.673279 
	C67.096016,300.392731 65.557899,300.240540 64.019791,300.088348 
	C63.654602,299.984344 63.289413,299.880310 62.348648,299.631256 
	C60.863342,299.399292 59.953625,299.312317 59.043900,299.225372 
	C58.394222,299.065521 57.744541,298.905670 56.469299,298.588745 
	C54.901604,298.316071 53.959469,298.200531 53.017338,298.084961 
	C52.661995,297.981079 52.306652,297.877228 51.428223,297.610474 
	C50.283798,297.377716 49.662464,297.307861 49.041126,297.237976 
	C48.428043,297.068024 47.814960,296.898071 46.684944,296.573669 
	C45.791622,296.367676 45.415230,296.316162 45.038841,296.264648 
	C25.345306,290.156464 16.040796,274.919983 10.065937,255.970459 
	C9.629462,254.496902 9.340031,253.681641 9.050600,252.866379 
	C9.038018,252.431198 9.025436,251.996017 8.921999,250.911392 
	C8.596921,249.375122 8.362698,248.488297 8.128475,247.601471 
	C8.129810,247.234192 8.131145,246.866898 8.073290,245.804413 
	C7.717434,242.276489 7.420767,239.443741 7.124101,236.611008 
	C7.297679,236.344254 7.353276,236.054840 7.411505,235.164642 
	C7.661866,231.396988 7.791615,228.207458 7.921364,225.017929 
	C8.021236,224.662125 8.121108,224.306335 8.363132,223.373795 
	C8.605045,221.876709 8.704809,220.956360 8.804573,220.036011 
	C8.905995,219.625931 9.007417,219.215836 9.303732,218.229553 
	C9.624525,216.776794 9.750426,215.900223 9.876327,215.023666 
	C13.619576,202.513184 19.484663,191.211945 29.698326,182.784653 
	C33.936859,179.287430 38.945728,176.723831 44.175522,173.462585 
	C45.496944,172.792831 46.247128,172.396179 46.997314,171.999512 
	C48.573856,171.522141 50.150402,171.044739 52.275154,170.351761 
	C54.228180,169.694489 55.632999,169.252808 57.037819,168.811142 
	C68.039444,167.008606 78.995377,165.651474 90.169937,167.922455 
	C103.059486,170.541977 113.766121,176.553757 122.684227,186.245926 
	C131.353806,195.667999 137.715683,206.337280 142.067169,218.994446 
	C142.450699,220.137039 142.694122,220.648010 142.937546,221.158966 
	C142.937546,221.158966 142.909485,221.614197 142.983521,222.169067 
	C143.328827,223.615524 143.600113,224.507111 143.871399,225.398697 
	C143.873337,225.770065 143.875275,226.141418 143.953171,227.171722 
	C144.314850,229.669296 144.600586,231.507950 144.886322,233.346603 
	C144.823547,235.189880 144.760773,237.033157 144.587555,239.613281 
	C144.356003,242.225037 144.234879,244.099915 144.113739,245.974808 
	C144.003036,246.330994 143.892334,246.687180 143.634979,247.624878 
	C143.360855,249.130417 143.233398,250.054474 143.105957,250.978516 
	C138.826462,259.686768 134.546982,268.395050 129.837555,277.554993 
	C127.847870,279.927826 126.288147,281.848999 124.728424,283.770142 
	C124.728416,283.770142 124.818481,283.852997 124.568932,283.888367 
	C124.125313,284.233551 123.931244,284.543304 123.737167,284.853088 
	C123.737167,284.853088 123.854897,284.818604 123.515724,284.895050 
	C121.786125,286.313599 120.395691,287.655670 119.005264,288.997772 
M33.698025,191.303131 
	C33.155502,191.939667 32.612976,192.576218 31.790886,193.813629 
	C16.454277,212.439301 12.762166,233.527542 19.700247,256.259216 
	C25.448435,275.092346 37.593136,287.461761 58.031708,290.104950 
	C63.470646,290.808350 68.839592,292.174225 74.291222,292.626190 
	C80.478836,293.139221 86.723198,292.967682 93.777588,293.034607 
	C96.789764,292.221893 99.968163,291.782318 102.783623,290.528046 
	C112.017960,286.414154 119.740425,280.241425 126.111160,272.383759 
	C136.967697,258.993317 141.020370,243.772476 138.398254,226.755692 
	C136.619263,215.210403 130.785477,205.571030 123.745468,196.642822 
	C107.303894,175.791443 87.471794,171.382812 61.146259,176.972412 
	C55.491051,178.964523 49.810883,180.891113 44.209618,183.024857 
	C43.437988,183.318787 43.057728,184.640121 42.385044,185.520477 
	C42.385044,185.520477 42.298412,185.598389 41.638699,185.217651 
	C40.901783,185.968536 40.164867,186.719421 39.344780,187.447128 
	C39.344780,187.447128 39.336754,187.533096 38.653835,187.235870 
	C38.152283,187.887543 37.650734,188.539200 37.042583,189.175995 
	C37.042583,189.175995 37.144905,189.142624 36.437962,189.045624 
	C35.764450,189.833771 35.090935,190.621918 34.387577,191.198700 
	C34.387577,191.198700 34.359631,191.410309 33.698025,191.303131 
z"/>
<path fill="#F3B802" opacity="1.000000" stroke="none" 
	d="
M92.014404,155.076584 
	C85.645874,155.022247 79.277344,154.967911 71.981964,154.950104 
	C66.060188,155.085068 61.065258,155.183517 56.070324,155.281967 
	C55.395470,154.695465 54.720619,154.108963 53.928291,152.779907 
	C53.847687,149.030853 53.884563,146.024353 53.921436,143.017868 
	C54.008526,142.387283 54.095615,141.756683 54.564713,140.623062 
	C59.478382,139.851181 64.010048,139.582336 68.751984,139.566833 
	C71.305336,139.851761 73.648415,139.883331 75.991493,139.914917 
	C78.907516,140.029816 81.823532,140.144714 85.345306,140.438263 
	C86.444328,140.455612 86.937592,140.294296 87.430855,140.132965 
	C87.584618,140.190643 87.735138,140.259796 87.892609,140.304321 
	C96.287392,142.679443 96.287445,142.679245 96.407799,151.676285 
	C95.900574,153.057922 95.443222,154.025803 94.985870,154.993683 
	C94.985870,154.993683 95.000000,155.000854 94.623695,155.008209 
	C93.503059,155.035904 92.758736,155.056244 92.014404,155.076584 
z"/>
<path fill="#EEC740" opacity="1.000000" stroke="none" 
	d="
M42.150311,162.613342 
	C41.776726,159.360703 41.403141,156.108047 40.960827,152.428162 
	C42.386814,150.696381 43.881531,149.391830 45.941711,147.987167 
	C46.507172,147.887054 46.963783,147.692307 46.963783,147.692307 
	C47.579048,150.029648 48.689854,152.366226 48.693417,154.704514 
	C48.698765,158.210342 48.035137,161.736847 47.408974,165.210052 
	C47.253834,166.070587 46.148632,166.759827 44.983681,167.788086 
	C44.338314,168.134186 44.189411,168.220001 44.040504,168.305817 
	C43.851650,168.271225 43.662800,168.236618 43.204563,167.778259 
	C42.841511,166.921051 42.747841,166.487595 42.654171,166.054123 
	C42.659184,165.563995 42.664200,165.073883 42.631516,164.008636 
	C42.569836,163.093246 42.422001,162.819839 42.150311,162.613342 
z"/>
<path fill="#EEC73B" opacity="1.000000" stroke="none" 
	d="
M100.873787,150.001541 
	C108.031387,152.241867 112.545830,160.166275 110.465874,167.401917 
	C110.259544,168.119690 107.842636,168.201996 106.159210,168.035797 
	C105.569374,167.331406 105.272049,167.170441 104.974731,167.009491 
	C106.064545,161.763443 104.580475,157.408463 100.491165,153.386719 
	C100.639961,151.871857 100.756874,150.936691 100.873787,150.001541 
z"/>
<path fill="#FAF9F7" opacity="1.000000" stroke="none" 
	d="
M53.003532,159.953247 
	C57.681183,159.981049 62.358837,160.008865 67.550087,160.307037 
	C68.259209,160.877136 68.535889,161.029327 68.893730,161.033966 
	C63.295944,161.901672 57.698158,162.769379 52.026188,162.981171 
	C52.302513,161.534592 52.653023,160.743912 53.003532,159.953247 
z"/>
<path fill="#351908" opacity="1.000000" stroke="none" 
	d="
M75.995903,139.577911 
	C73.648415,139.883331 71.305336,139.851761 68.373398,139.467285 
	C67.527267,139.071976 67.269989,139.029556 67.012711,138.987152 
	C67.695702,138.438705 68.378685,137.890274 69.552498,136.947693 
	C67.444618,136.947693 65.906204,136.952164 64.367950,136.938522 
	C64.254784,136.937500 64.142792,136.805725 64.030258,136.734726 
	C64.168419,136.516769 64.306580,136.298813 65.183716,136.041611 
	C69.602234,136.023697 73.281776,136.045029 76.961319,136.066345 
	C76.640984,137.124542 76.320648,138.182724 75.995903,139.577911 
M73.414986,137.483185 
	C73.414986,137.483185 73.523804,137.419098 73.414986,137.483185 
z"/>
<path fill="#472713" opacity="1.000000" stroke="none" 
	d="
M90.301605,162.841431 
	C86.472923,162.508743 82.644234,162.176071 78.545326,161.554993 
	C78.504982,160.533203 78.734863,159.799835 78.964745,159.066437 
	C83.123909,159.179932 87.283081,159.293411 91.724899,159.888824 
	C92.007545,160.370758 92.003464,160.749496 91.621338,160.823730 
	C89.943565,160.994202 88.647919,161.090439 87.352264,161.186676 
	C87.375267,161.430740 87.398277,161.674820 87.421280,161.918900 
	C88.157417,161.992706 88.893547,162.066498 89.795662,162.317505 
	C89.961639,162.494720 90.301605,162.841431 90.301605,162.841431 
z"/>
<path fill="#472713" opacity="1.000000" stroke="none" 
	d="
M77.431564,136.045441 
	C73.281776,136.045029 69.602234,136.023697 65.462540,135.999344 
	C65.002396,135.996323 64.993614,135.543060 64.986259,135.316772 
	C72.918076,135.106827 80.857246,135.123184 89.244057,135.129211 
	C90.381950,135.237259 91.072197,135.355652 92.050964,135.681976 
	C87.526924,135.934799 82.714363,135.979675 77.431564,136.045441 
z"/>
<path fill="#412314" opacity="1.000000" stroke="none" 
	d="
M78.514832,159.038452 
	C78.734863,159.799835 78.504982,160.533203 78.150795,161.524323 
	C75.246941,161.527298 72.467400,161.272568 69.290787,161.025909 
	C68.535889,161.029327 68.259209,160.877136 68.013000,160.337616 
	C71.329857,159.735367 74.697395,159.372910 78.514832,159.038452 
z"/>
<path fill="#F2EFEC" opacity="1.000000" stroke="none" 
	d="
M89.629684,162.140305 
	C88.893547,162.066498 88.157417,161.992706 87.421280,161.918900 
	C87.398277,161.674820 87.375267,161.430740 87.352264,161.186676 
	C88.647919,161.090439 89.943565,160.994202 91.877968,160.877533 
	C92.697731,160.578918 92.878746,160.300781 93.059761,160.022629 
	C94.819122,160.315475 96.578491,160.608322 98.786560,161.204529 
	C99.156792,162.022385 99.078316,162.536850 98.999847,163.051331 
	C97.608582,163.026154 96.217331,163.000977 94.122673,162.672272 
	C92.156075,162.292603 90.892883,162.216446 89.629684,162.140305 
z"/>
<path fill="#472713" opacity="1.000000" stroke="none" 
	d="
M56.397861,155.517990 
	C61.065258,155.183517 66.060188,155.085068 71.518494,155.032547 
	C66.896370,155.303665 61.810886,155.528839 56.397861,155.517990 
z"/>
<path fill="#381807" opacity="1.000000" stroke="none" 
	d="
M125.102097,283.819794 
	C126.288147,281.848999 127.847870,279.927826 129.723572,277.854980 
	C128.518311,279.758667 126.997032,281.814056 125.102097,283.819794 
z"/>
<path fill="#472713" opacity="1.000000" stroke="none" 
	d="
M66.755554,138.990036 
	C67.269989,139.029556 67.527267,139.071976 68.163132,139.213928 
	C64.010048,139.582336 59.478382,139.851181 54.514694,140.307098 
	C56.762718,139.995071 59.442764,139.495941 62.940376,138.993652 
	C64.499985,138.990158 65.242027,138.989822 65.984062,138.989502 
	C66.155502,138.990646 66.326950,138.991776 66.755554,138.990036 
z"/>
<path fill="#472713" opacity="1.000000" stroke="none" 
	d="
M80.343079,302.421936 
	C84.041199,302.116699 88.049751,302.073242 92.519203,302.060425 
	C88.871239,302.288605 84.762367,302.486145 80.343079,302.421936 
z"/>
<path fill="#381807" opacity="1.000000" stroke="none" 
	d="
M119.195084,289.246979 
	C120.395691,287.655670 121.786125,286.313599 123.473663,284.850403 
	C122.308823,286.318268 120.846863,287.907227 119.195084,289.246979 
z"/>
<path fill="#3E1E0B" opacity="1.000000" stroke="none" 
	d="
M57.210625,168.593246 
	C55.632999,169.252808 54.228180,169.694489 52.456268,170.156448 
	C54.076939,169.215530 56.064701,168.254333 58.052460,167.293137 
	C58.062477,167.434311 58.135857,167.627167 58.070709,167.707031 
	C57.870056,167.953003 57.616459,168.155792 57.210625,168.593246 
z"/>
<path fill="#472713" opacity="1.000000" stroke="none" 
	d="
M99.005920,163.396973 
	C99.078316,162.536850 99.156792,162.022385 99.171661,161.122864 
	C99.845123,162.153137 100.582199,163.568466 101.319267,164.983795 
	C100.805672,165.205643 100.292068,165.427505 99.778465,165.649353 
	C99.522980,165.013779 99.267487,164.378204 99.005920,163.396973 
z"/>
<path fill="#472713" opacity="1.000000" stroke="none" 
	d="
M7.644056,225.316742 
	C7.791615,228.207458 7.661866,231.396988 7.320468,234.958282 
	C7.194796,232.091888 7.280772,228.853714 7.644056,225.316742 
z"/>
<path fill="#472713" opacity="1.000000" stroke="none" 
	d="
M53.649498,143.305756 
	C53.884563,146.024353 53.847687,149.030853 53.761749,152.483261 
	C53.600979,149.817337 53.489269,146.705475 53.649498,143.305756 
z"/>
<path fill="#472713" opacity="1.000000" stroke="none" 
	d="
M7.082211,237.079681 
	C7.420767,239.443741 7.717434,242.276489 7.967319,245.546234 
	C7.627131,243.171616 7.333727,240.360001 7.082211,237.079681 
z"/>
<path fill="#472713" opacity="1.000000" stroke="none" 
	d="
M149.067200,232.168579 
	C149.239929,234.655228 149.372787,237.624847 149.306671,240.956665 
	C149.080933,238.429764 149.054138,235.540665 149.067200,232.168579 
z"/>
<path fill="#472713" opacity="1.000000" stroke="none" 
	d="
M144.381409,245.684906 
	C144.234879,244.099915 144.356003,242.225037 144.681213,239.998993 
	C144.806564,241.563553 144.727814,243.479294 144.381409,245.684906 
z"/>
<path fill="#472713" opacity="1.000000" stroke="none" 
	d="
M52.813538,159.717758 
	C52.653023,160.743912 52.302513,161.534592 51.880508,162.654495 
	C52.080524,161.816574 52.352036,160.649429 52.813538,159.717758 
z"/>
<path fill="#472713" opacity="1.000000" stroke="none" 
	d="
M70.275909,301.293823 
	C71.881462,301.158997 73.763504,301.312988 75.995461,301.676819 
	C74.414383,301.785370 72.483383,301.684021 70.275909,301.293823 
z"/>
<path fill="#472713" opacity="1.000000" stroke="none" 
	d="
M144.926331,232.918335 
	C144.600586,231.507950 144.314850,229.669296 144.071442,227.427917 
	C144.397964,228.846817 144.682159,230.668427 144.926331,232.918335 
z"/>
<path fill="#3E1E0B" opacity="1.000000" stroke="none" 
	d="
M46.783913,171.738495 
	C46.247128,172.396179 45.496944,172.792831 44.427864,173.238663 
	C44.929489,172.684387 45.750004,172.080933 46.783913,171.738495 
z"/>
<path fill="#472713" opacity="1.000000" stroke="none" 
	d="
M148.641495,244.301773 
	C148.780075,245.574799 148.648499,247.127518 148.319183,249.025604 
	C148.204727,247.774475 148.288025,246.177979 148.641495,244.301773 
z"/>
<path fill="#472713" opacity="1.000000" stroke="none" 
	d="
M64.297821,300.357971 
	C65.557899,300.240540 67.096016,300.392731 68.986664,300.718445 
	C67.751411,300.803802 66.163635,300.715698 64.297821,300.357971 
z"/>
<path fill="#351908" opacity="1.000000" stroke="none" 
	d="
M55.064175,135.255157 
	C55.477982,134.935944 55.912655,134.925476 56.663658,134.996933 
	C56.878841,135.687561 56.777691,136.296265 56.676537,136.904968 
	C56.146038,136.457962 55.615540,136.010956 55.064175,135.255157 
z"/>
<path fill="#EBCEA6" opacity="1.000000" stroke="none" 
	d="
M89.795662,162.317505 
	C90.892883,162.216446 92.156075,162.292603 93.710205,162.607147 
	C93.015495,162.838593 92.029846,162.831619 90.672905,162.833038 
	C90.301605,162.841431 89.961639,162.494720 89.795662,162.317505 
z"/>
<path fill="#472713" opacity="1.000000" stroke="none" 
	d="
M95.257507,154.821564 
	C95.443222,154.025803 95.900574,153.057922 96.643112,151.910355 
	C96.461922,152.703598 95.995529,153.676529 95.257507,154.821564 
z"/>
<path fill="#472713" opacity="1.000000" stroke="none" 
	d="
M126.063591,183.251022 
	C126.626198,183.427155 127.218956,183.932693 127.913834,184.715851 
	C127.375214,184.522446 126.734482,184.051437 126.063591,183.251022 
z"/>
<path fill="#412314" opacity="1.000000" stroke="none" 
	d="
M44.987915,111.386734 
	C45.318813,111.821060 45.651184,112.587517 45.987595,113.678284 
	C45.657555,113.241348 45.323467,112.480095 44.987915,111.386734 
z"/>
<path fill="#472713" opacity="1.000000" stroke="none" 
	d="
M9.027770,253.206772 
	C9.340031,253.681641 9.629462,254.496902 9.886414,255.641663 
	C9.570935,255.163177 9.287938,254.355164 9.027770,253.206772 
z"/>
<path fill="#472713" opacity="1.000000" stroke="none" 
	d="
M147.624908,251.260803 
	C147.740875,251.896912 147.612396,252.765213 147.272980,253.891571 
	C147.168198,253.264084 147.274323,252.378540 147.624908,251.260803 
z"/>
<path fill="#472713" opacity="1.000000" stroke="none" 
	d="
M143.364258,250.726776 
	C143.233398,250.054474 143.360855,249.130417 143.679993,247.903473 
	C143.788635,248.558731 143.705597,249.516891 143.364258,250.726776 
z"/>
<path fill="#412314" opacity="1.000000" stroke="none" 
	d="
M44.004387,108.364204 
	C44.327393,108.803558 44.644215,109.574509 44.960747,110.669495 
	C44.639702,110.227631 44.318954,109.461708 44.004387,108.364204 
z"/>
<path fill="#472713" opacity="1.000000" stroke="none" 
	d="
M8.087664,247.962708 
	C8.362698,248.488297 8.596921,249.375122 8.797110,250.607452 
	C8.524335,250.076614 8.285593,249.200287 8.087664,247.962708 
z"/>
<path fill="#472713" opacity="1.000000" stroke="none" 
	d="
M9.629625,215.257568 
	C9.750426,215.900223 9.624525,216.776794 9.282661,217.911652 
	C9.172108,217.277130 9.277516,216.384293 9.629625,215.257568 
z"/>
<path fill="#472713" opacity="1.000000" stroke="none" 
	d="
M147.042633,219.187469 
	C147.362534,219.664307 147.659195,220.486710 147.929199,221.643738 
	C147.608154,221.163269 147.313766,220.348145 147.042633,219.187469 
z"/>
<path fill="#472713" opacity="1.000000" stroke="none" 
	d="
M8.564215,220.297546 
	C8.704809,220.956360 8.605045,221.876709 8.317024,223.098633 
	C8.193797,222.453156 8.258827,221.506134 8.564215,220.297546 
z"/>
<path fill="#472713" opacity="1.000000" stroke="none" 
	d="
M143.910797,225.028839 
	C143.600113,224.507111 143.328827,223.615524 143.085083,222.373260 
	C143.391800,222.901367 143.670990,223.780182 143.910797,225.028839 
z"/>
<path fill="#472713" opacity="1.000000" stroke="none" 
	d="
M148.091827,223.977966 
	C148.380081,224.500122 148.627274,225.380997 148.820511,226.607803 
	C148.527954,226.081375 148.289337,225.209030 148.091827,223.977966 
z"/>
<path fill="#412314" opacity="1.000000" stroke="none" 
	d="
M42.992580,105.375076 
	C43.322121,105.806984 43.650837,106.570625 43.983662,107.655418 
	C43.655766,107.219986 43.323761,106.463394 42.992580,105.375076 
z"/>
<path fill="#412314" opacity="1.000000" stroke="none" 
	d="
M47.995110,120.386963 
	C48.312557,120.819504 48.627121,121.579239 48.943546,122.657646 
	C48.627686,122.222267 48.309956,121.468216 47.995110,120.386963 
z"/>
<path fill="#412314" opacity="1.000000" stroke="none" 
	d="
M58.614922,120.251358 
	C58.708008,120.852119 58.571117,121.663261 58.208496,122.686279 
	C58.116825,122.086021 58.250885,121.273880 58.614922,120.251358 
z"/>
<path fill="#472713" opacity="1.000000" stroke="none" 
	d="
M100.615936,150.256531 
	C100.756874,150.936691 100.639961,151.871857 100.328972,153.109955 
	C100.209305,152.445770 100.283699,151.478638 100.615936,150.256531 
z"/>
<path fill="#472713" opacity="1.000000" stroke="none" 
	d="
M92.207077,155.313690 
	C92.758736,155.056244 93.503059,155.035904 94.620789,155.001221 
	C94.129379,155.174850 93.264565,155.362823 92.207077,155.313690 
z"/>
<path fill="#472713" opacity="1.000000" stroke="none" 
	d="
M53.271313,298.347473 
	C53.959469,298.200531 54.901604,298.316071 56.137463,298.646759 
	C55.462559,298.777893 54.493923,298.693909 53.271313,298.347473 
z"/>
<path fill="#472713" opacity="1.000000" stroke="none" 
	d="
M59.304893,299.457367 
	C59.953625,299.312317 60.863342,299.399292 62.065727,299.682068 
	C61.427551,299.815033 60.496716,299.752197 59.304893,299.457367 
z"/>
<path fill="#412314" opacity="1.000000" stroke="none" 
	d="
M21.987919,44.398331 
	C22.322933,44.829483 22.660288,45.591721 22.996599,46.678841 
	C22.660460,46.245617 22.325361,45.487514 21.987919,44.398331 
z"/>
<path fill="#351908" opacity="1.000000" stroke="none" 
	d="
M65.805222,138.739899 
	C65.242027,138.989822 64.499985,138.990158 63.387161,138.989822 
	C63.886375,138.822876 64.756378,138.656586 65.805222,138.739899 
z"/>
<path fill="#472713" opacity="1.000000" stroke="none" 
	d="
M49.275078,297.455505 
	C49.662464,297.307861 50.283798,297.377716 51.151367,297.654602 
	C50.768082,297.798767 50.138557,297.735901 49.275078,297.455505 
z"/>
<path fill="#472713" opacity="1.000000" stroke="none" 
	d="
M142.954163,220.865662 
	C142.694122,220.648010 142.450699,220.137039 142.233765,219.336105 
	C142.497086,219.554871 142.733948,220.063599 142.954163,220.865662 
z"/>
<path fill="#472713" opacity="1.000000" stroke="none" 
	d="
M104.818756,167.149719 
	C105.272049,167.170441 105.569374,167.331406 105.886002,167.749069 
	C105.491135,167.767181 105.076958,167.528580 104.818756,167.149719 
z"/>
<path fill="#472713" opacity="1.000000" stroke="none" 
	d="
M42.473835,166.250519 
	C42.747841,166.487595 42.841511,166.921051 42.930710,167.689117 
	C42.926243,168.023712 42.462353,168.017105 42.230453,168.010681 
	C42.096867,167.485153 42.195183,166.966049 42.473835,166.250519 
z"/>
<path fill="#351908" opacity="1.000000" stroke="none" 
	d="
M86.970673,140.106537 
	C86.937592,140.294296 86.444328,140.455612 85.770332,140.370056 
	C85.896561,140.108841 86.203522,140.094467 86.970673,140.106537 
z"/>
<path fill="#412314" opacity="1.000000" stroke="none" 
	d="
M92.803925,160.011703 
	C92.878746,160.300781 92.697731,160.578918 92.260086,160.803284 
	C92.003464,160.749496 92.007545,160.370758 92.021790,160.181519 
	C92.206726,159.995117 92.377411,159.997955 92.803925,160.011703 
z"/>
<path fill="#472713" opacity="1.000000" stroke="none" 
	d="
M46.856018,147.571808 
	C46.963783,147.692307 46.507172,147.887054 46.260506,147.859406 
	C46.154877,147.460938 46.399685,147.334106 46.856018,147.571808 
z"/>
<path fill="#381807" opacity="1.000000" stroke="none" 
	d="
M124.017441,284.779785 
	C123.931244,284.543304 124.125313,284.233551 124.584732,283.829285 
	C124.665962,284.058655 124.481834,284.382568 124.017441,284.779785 
z"/>
<path fill="#472713" opacity="1.000000" stroke="none" 
	d="
M45.247135,296.459137 
	C45.415230,296.316162 45.791622,296.367676 46.369957,296.631165 
	C46.199749,296.779938 45.827591,296.716766 45.247135,296.459137 
z"/>
<path fill="#472713" opacity="1.000000" stroke="none" 
	d="
M44.166145,168.422775 
	C44.189411,168.220001 44.338314,168.134186 44.744274,168.029358 
	C44.764812,168.186783 44.528297,168.363251 44.166145,168.422775 
z"/>
<path fill="#442717" opacity="1.000000" stroke="none" 
	d="
M69.992004,55.612087 
	C69.488319,54.463100 68.980408,52.949467 68.729347,51.241867 
	C69.320053,52.447750 69.653915,53.847599 69.992004,55.612087 
z"/>
<path fill="#442717" opacity="1.000000" stroke="none" 
	d="
M70.995056,58.640305 
	C70.668678,58.209167 70.340706,57.445217 70.015945,56.347160 
	C70.343933,56.777870 70.668694,57.542683 70.995056,58.640305 
z"/>
<path fill="#412213" opacity="1.000000" stroke="none" 
	d="
M57.996178,23.002476 
	C57.660961,22.379869 57.329929,21.754456 56.998894,21.129042 
	C57.236282,21.050516 57.473675,20.971991 57.711067,20.893465 
	C57.807899,21.395815 57.904732,21.898165 58.005131,22.695927 
	C58.008694,22.991337 58.000355,22.999668 57.996178,23.002476 
z"/>
<path fill="#472713" opacity="1.000000" stroke="none" 
	d="
M42.125748,162.838562 
	C42.422001,162.819839 42.569836,163.093246 42.515587,163.657562 
	C42.223881,163.650742 42.111824,163.378143 42.125748,162.838562 
z"/>
<path fill="#442717" opacity="1.000000" stroke="none" 
	d="
M75.643860,63.033585 
	C75.354759,64.175102 74.724464,65.348648 74.094170,66.522186 
	C73.488182,65.879883 72.882195,65.237572 72.158401,64.299507 
	C73.127960,63.691036 74.215317,63.378326 75.643860,63.033585 
z"/>
<path fill="#492312" opacity="1.000000" stroke="none" 
	d="
M77.743439,57.175064 
	C77.819405,57.557362 77.656189,58.103096 77.247528,58.805023 
	C77.169479,58.420315 77.336868,57.879410 77.743439,57.175064 
z"/>
<path fill="#442717" opacity="1.000000" stroke="none" 
	d="
M72.598434,73.271454 
	C72.443245,73.147163 72.421501,72.931953 72.399750,72.716736 
	C72.510452,72.871330 72.621162,73.025932 72.598434,73.271454 
z"/>
<path fill="#43230F" opacity="1.000000" stroke="none" 
	d="
M92.942894,293.093750 
	C86.723198,292.967682 80.478836,293.139221 74.291222,292.626190 
	C68.839592,292.174225 63.470646,290.808350 58.031708,290.104950 
	C37.593136,287.461761 25.448435,275.092346 19.700247,256.259216 
	C12.762166,233.527542 16.454277,212.439301 32.254333,193.445160 
	C33.265064,192.521225 33.812351,191.965775 34.359634,191.410309 
	C34.359631,191.410309 34.387577,191.198700 34.708176,191.296921 
	C35.734150,190.644302 36.439529,189.893463 37.144905,189.142624 
	C37.144905,189.142624 37.042583,189.175995 37.399582,189.154999 
	C38.283306,188.600372 38.810032,188.066727 39.336754,187.533096 
	C39.336754,187.533096 39.344780,187.447128 39.691795,187.488037 
	C40.792011,186.885422 41.545212,186.241898 42.298409,185.598389 
	C42.298412,185.598389 42.385044,185.520477 42.777622,185.531189 
	C49.465279,183.095535 55.760357,180.649170 62.484825,178.206970 
	C64.557999,177.962036 66.194466,177.639420 67.846687,177.475006 
	C87.610588,175.508377 105.306984,179.200790 117.887863,196.063034 
	C116.271751,196.245850 114.969513,196.324417 113.679291,196.398941 
	C113.691307,196.394882 113.690826,196.370163 113.669319,196.071869 
	C113.307541,195.620453 112.967278,195.467346 112.700394,195.262115 
	C112.773788,195.209976 112.691147,195.369934 112.669548,195.071655 
	C112.307724,194.620056 111.967499,194.466736 111.675705,194.355286 
	C111.724136,194.397141 111.599762,194.366791 111.669907,194.181885 
	C111.501595,193.952194 111.263153,193.907379 110.733398,193.706757 
	C102.373741,186.293335 92.986595,181.984650 82.114342,181.358383 
	C62.705849,180.240402 45.245750,184.794922 32.491898,200.526001 
	C16.186697,220.637421 16.698843,253.618622 33.717003,273.177338 
	C37.388817,277.397278 42.480515,281.554565 47.684685,283.021667 
	C58.166821,285.976562 69.176094,287.061493 80.417252,289.036224 
	C85.882324,288.464966 91.331665,288.779572 95.810081,286.845764 
	C102.214378,284.080353 107.908562,279.670441 114.271126,276.006287 
	C115.808090,276.383118 116.979904,276.716461 117.999413,277.353394 
	C110.815979,284.851898 102.054001,289.254456 92.942894,293.093750 
z"/>
<path fill="#F3CE42" opacity="1.000000" stroke="none" 
	d="
M118.201729,195.958801 
	C105.306984,179.200790 87.610588,175.508377 67.846687,177.475006 
	C66.194466,177.639420 64.557999,177.962036 62.459244,177.889801 
	C61.983421,177.357346 61.962566,177.146271 61.941715,176.935211 
	C87.471794,171.382812 107.303894,175.791443 123.745468,196.642822 
	C130.785477,205.571030 136.619263,215.210403 138.398254,226.755692 
	C141.020370,243.772476 136.967697,258.993317 126.111160,272.383759 
	C119.740425,280.241425 112.017960,286.414154 102.783623,290.528046 
	C99.968163,291.782318 96.789764,292.221893 93.360245,293.064178 
	C102.054001,289.254456 110.815979,284.851898 118.295403,277.207520 
	C141.337082,252.053238 141.121277,219.881668 118.201729,195.958801 
z"/>
<path fill="#F0CD40" opacity="1.000000" stroke="none" 
	d="
M61.543987,176.953812 
	C61.962566,177.146271 61.983421,177.357346 62.029861,177.885620 
	C55.760357,180.649170 49.465279,183.095535 42.833237,185.513855 
	C43.057728,184.640121 43.437988,183.318787 44.209618,183.024857 
	C49.810883,180.891113 55.491051,178.964523 61.543987,176.953812 
z"/>
<path fill="#F0CD40" opacity="1.000000" stroke="none" 
	d="
M41.968552,185.408020 
	C41.545212,186.241898 40.792011,186.885422 39.733383,187.499634 
	C40.164867,186.719421 40.901783,185.968536 41.968552,185.408020 
z"/>
<path fill="#F0CD40" opacity="1.000000" stroke="none" 
	d="
M36.791435,189.094116 
	C36.439529,189.893463 35.734150,190.644302 34.723099,191.402588 
	C35.090935,190.621918 35.764450,189.833771 36.791435,189.094116 
z"/>
<path fill="#F0CD40" opacity="1.000000" stroke="none" 
	d="
M38.995293,187.384491 
	C38.810032,188.066727 38.283306,188.600372 37.452881,189.162430 
	C37.650734,188.539200 38.152283,187.887543 38.995293,187.384491 
z"/>
<path fill="#F0CD40" opacity="1.000000" stroke="none" 
	d="
M34.028831,191.356720 
	C33.812351,191.965775 33.265064,192.521225 32.394112,193.144714 
	C32.612976,192.576218 33.155502,191.939667 34.028831,191.356720 
z"/>
<path fill="#40210E" opacity="1.000000" stroke="none" 
	d="
M73.469391,137.451141 
	C73.523804,137.419098 73.414986,137.483185 73.469391,137.451141 
z"/>
<path fill="#FCD342" opacity="1.000000" stroke="none" 
	d="
M79.967888,288.917908 
	C69.176094,287.061493 58.166821,285.976562 47.684685,283.021667 
	C42.480515,281.554565 37.388817,277.397278 33.717003,273.177338 
	C16.698843,253.618622 16.186697,220.637421 32.491898,200.526001 
	C45.245750,184.794922 62.705849,180.240402 82.114342,181.358383 
	C92.986595,181.984650 102.373741,186.293335 110.832916,193.883270 
	C111.223732,194.215607 111.599762,194.366791 111.599762,194.366791 
	C111.599762,194.366791 111.724136,194.397141 111.768456,194.604980 
	C112.105560,194.998520 112.398354,195.184235 112.691147,195.369934 
	C112.691147,195.369934 112.773788,195.209976 112.793144,195.511719 
	C113.105278,195.999023 113.398048,196.184601 113.690826,196.370163 
	C113.690826,196.370163 113.691307,196.394882 113.822037,196.690979 
	C117.442345,201.810776 121.393532,206.369568 124.340347,211.504715 
	C136.142731,232.071640 132.527481,257.957977 116.040390,272.694092 
	C116.142372,270.602081 116.232391,268.951050 116.391731,267.306732 
	C117.919838,251.537689 119.535629,235.776398 120.908081,219.993896 
	C121.097710,217.813324 120.099426,215.529449 119.651093,213.293381 
	C119.151588,213.308640 118.652077,213.323883 118.152573,213.339142 
	C116.785957,217.191238 115.835175,221.257248 113.982147,224.859100 
	C105.032585,242.254898 95.860298,259.536377 86.719177,276.833130 
	C84.563751,280.911621 82.223259,284.892273 79.967888,288.917908 
z"/>
<path fill="#FEDE64" opacity="1.000000" stroke="none" 
	d="
M80.417252,289.036255 
	C82.223259,284.892273 84.563751,280.911621 86.719177,276.833130 
	C95.860298,259.536377 105.032585,242.254898 113.982147,224.859100 
	C115.835175,221.257248 116.785957,217.191238 118.152573,213.339142 
	C118.652077,213.323883 119.151588,213.308640 119.651093,213.293381 
	C120.099426,215.529449 121.097710,217.813324 120.908081,219.993896 
	C119.535629,235.776398 117.919838,251.537689 116.391731,267.306732 
	C116.232391,268.951050 116.142372,270.602081 115.942642,272.978516 
	C115.212074,274.458923 114.559029,275.210846 113.905983,275.962769 
	C107.908562,279.670441 102.214378,284.080353 95.810081,286.845764 
	C91.331665,288.779572 85.882324,288.464966 80.417252,289.036255 
z"/>
<path fill="#42220E" opacity="1.000000" stroke="none" 
	d="
M114.271133,276.006287 
	C114.559029,275.210846 115.212074,274.458923 115.962852,273.422577 
	C132.527481,257.957977 136.142731,232.071640 124.340347,211.504715 
	C121.393532,206.369568 117.442345,201.810776 113.810028,196.695038 
	C114.969513,196.324417 116.271751,196.245850 117.887863,196.063034 
	C141.121277,219.881668 141.337082,252.053238 118.447701,276.903931 
	C116.979904,276.716461 115.808090,276.383118 114.271133,276.006287 
z"/>
<path fill="#42220E" opacity="1.000000" stroke="none" 
	d="
M113.669319,196.071869 
	C113.398048,196.184601 113.105278,195.999023 112.719757,195.563843 
	C112.967278,195.467346 113.307541,195.620453 113.669319,196.071869 
z"/>
<path fill="#42220E" opacity="1.000000" stroke="none" 
	d="
M112.669548,195.071655 
	C112.398354,195.184235 112.105560,194.998520 111.720024,194.563110 
	C111.967499,194.466736 112.307724,194.620056 112.669548,195.071655 
z"/>
<path fill="#42220E" opacity="1.000000" stroke="none" 
	d="
M111.669907,194.181885 
	C111.599762,194.366791 111.223732,194.215607 111.124222,194.039093 
	C111.263153,193.907379 111.501595,193.952194 111.669907,194.181885 
z"/>
</svg>