<?xml version="1.0" encoding="UTF-8"?>
<svg width="700pt" height="700pt" version="1.1" viewBox="0 0 700 700" xmlns="http://www.w3.org/2000/svg">
 <g>
  <path d="m547.4 52.5h-39.898v-17.5c0-9.625-7.875-17.5-17.5-17.5s-17.5 7.875-17.5 17.5v17.5h-105v-17.5c0-9.625-7.875-17.5-17.5-17.5s-17.5 7.875-17.5 17.5v17.5h-105v-17.5c0-9.625-7.875-17.5-17.5-17.5s-17.5 7.875-17.5 17.5v17.5h-39.898c-35.875 0-65.102 29.227-65.102 65.102v359.8c0 35.875 29.227 65.102 65.102 65.102h394.8c35.875 0 65.102-29.227 65.102-65.102v-359.8c0-35.875-29.227-65.102-65.102-65.102zm30.102 424.9c0 16.625-13.477 30.102-30.102 30.102h-394.8c-16.625 0-30.102-13.477-30.102-30.102v-359.8c0-16.625 13.477-30.102 30.102-30.102h39.898v17.5c0 9.625 7.875 17.5 17.5 17.5s17.5-7.875 17.5-17.5v-17.5h105v17.5c0 9.625 7.875 17.5 17.5 17.5s17.5-7.875 17.5-17.5v-17.5h105v17.5c0 9.625 7.875 17.5 17.5 17.5s17.5-7.875 17.5-17.5v-17.5h39.898c16.625 0 30.102 13.477 30.102 30.102z"/>
  <path d="m460.07 215.07-136.32 136.32-66.324-66.324c-6.8242-6.8242-17.852-6.8242-24.676 0s-6.8242 17.852 0 24.676l78.75 78.75c3.5 3.5 7.875 5.0742 12.426 5.0742s8.9258-1.75 12.426-5.0742l148.75-148.75c6.8242-6.8242 6.8242-17.852 0-24.676-6.8242-6.8242-17.852-6.8242-24.676 0z"/>
 </g>
</svg>
